<?xml version="1.0" encoding="UTF-8"?>
<svg version="1.1" xmlns="http://www.w3.org/2000/svg" width="1024" height="1024">
<path d="M0 0 C1.0415625 -0.03287109 2.083125 -0.06574219 3.15625 -0.09960938 C4.66832031 -0.11024414 4.66832031 -0.11024414 6.2109375 -0.12109375 C7.1292334 -0.13454834 8.0475293 -0.14800293 8.99365234 -0.16186523 C12.7845593 0.70162304 14.20935492 2.43998607 16.625 5.4375 C18.0402832 8.53222656 18.0402832 8.53222656 19.17578125 12.078125 C19.39185532 12.73767181 19.60792938 13.39721863 19.83055115 14.07675171 C20.54726799 16.27595987 21.24228124 18.48141073 21.9375 20.6875 C22.44094669 22.24704636 22.9458681 23.80611732 23.45214844 25.36474609 C24.56537522 28.7984875 25.67000219 32.23485685 26.77001953 35.67285156 C28.80227157 42.00883371 30.8828206 48.32866888 32.96484375 54.6484375 C34.43553309 59.11958227 35.90533838 63.59101733 37.375 68.0625 C37.73687408 69.16259399 38.09874817 70.26268799 38.47158813 71.39611816 C39.49982346 74.52608207 40.52395495 77.65735807 41.546875 80.7890625 C41.85878281 81.73639252 42.17069061 82.68372253 42.49205017 83.65975952 C42.77407791 84.52565704 43.05610565 85.39155457 43.34667969 86.28369141 C43.59472351 87.04114655 43.84276733 87.79860168 44.09832764 88.57901001 C44.625 90.4375 44.625 90.4375 44.625 92.4375 C46.87512593 91.58783893 46.87512593 91.58783893 47.60791016 89.01220703 C47.95644043 87.91763184 48.3049707 86.82305664 48.6640625 85.6953125 C48.86195877 85.08019302 49.05985504 84.46507355 49.26374817 83.83131409 C49.70050515 82.46910186 50.13354443 81.10569372 50.56344604 79.74130249 C51.25920534 77.53328654 51.96476529 75.32859417 52.67211914 73.12426758 C55.40040181 64.59307669 58.06161086 56.04164199 60.69793701 47.48162842 C62.12609984 42.84670847 63.56152294 38.21404531 64.996521 33.58123779 C66.05356507 30.15396984 67.09749702 26.72288051 68.14111328 23.29150391 C68.80054069 21.15640061 69.46050963 19.02146446 70.12109375 16.88671875 C70.56277641 15.41375084 70.56277641 15.41375084 71.01338196 13.911026 C72.54169755 9.01835778 73.9159002 5.15325119 77.625 1.4375 C81.38098459 -0.4404923 85.92973982 0.25274238 90.0625 0.25 C91.51366211 0.23163086 91.51366211 0.23163086 92.99414062 0.21289062 C94.38729492 0.20999023 94.38729492 0.20999023 95.80859375 0.20703125 C97.08561157 0.20086792 97.08561157 0.20086792 98.38842773 0.19458008 C100.625 0.4375 100.625 0.4375 103.625 2.4375 C104.24734963 8.63265004 102.96716381 13.44863063 100.87890625 19.23828125 C100.59213516 20.06489761 100.30536407 20.89151398 100.00990295 21.74317932 C99.08010712 24.41610987 98.1337242 27.08284659 97.1875 29.75 C96.54530085 31.5901656 95.90452087 33.43082707 95.26513672 35.27197266 C93.98985677 38.94191801 92.70966645 42.6100831 91.42529297 46.27685547 C88.97989403 53.27093894 86.60241761 60.28661928 84.25 67.3125 C83.68841187 68.9663269 83.68841187 68.9663269 83.11547852 70.65356445 C82.61359009 72.15149536 82.61359009 72.15149536 82.1015625 73.6796875 C81.81361816 74.5341748 81.52567383 75.38866211 81.22900391 76.26904297 C80.49083688 78.54399643 80.49083688 78.54399643 80.625 81.4375 C79.965 81.4375 79.305 81.4375 78.625 81.4375 C78.50423096 82.12593994 78.38346191 82.81437988 78.2590332 83.52368164 C77.11746087 88.76999115 75.23873056 93.80317331 73.49682617 98.87524414 C72.81674626 100.86259146 72.1494575 102.85394606 71.48242188 104.84570312 C71.04505428 106.12526806 70.60692765 107.40457384 70.16796875 108.68359375 C69.77633545 109.83529053 69.38470215 110.9869873 68.98120117 112.17358398 C65.5270913 120.48645435 65.5270913 120.48645435 61.625 122.4375 C54.6523165 123.41803362 47.65370759 123.64212031 40.625 123.4375 C38.97177734 123.42976562 38.97177734 123.42976562 37.28515625 123.421875 C28.57157534 123.14743151 28.57157534 123.14743151 24.625 120.1875 C19.05117825 111.36980029 16.41248233 100.03645682 13.1875 90.1875 C12.31893762 87.55514909 11.44697409 84.92393216 10.57421875 82.29296875 C10.22819611 81.24930397 10.22819611 81.24930397 9.87518311 80.18455505 C7.10049843 71.83262272 4.25921619 63.50342043 1.41384888 55.175354 C0.50443423 52.51298151 -0.40322671 49.85001544 -1.31079102 47.18701172 C-3.84512758 39.76066065 -6.39216979 32.34132489 -9.046875 24.95703125 C-9.4269873 23.89411865 -9.80709961 22.83120605 -10.19873047 21.73608398 C-10.87019372 19.8687425 -11.55062917 18.00458684 -12.24267578 16.14477539 C-13.926614 11.45823712 -15.01203224 7.49475593 -14.375 2.4375 C-9.82758612 -0.59410925 -5.35162217 0.02958513 0 0 Z " fill="#5561A5" transform="translate(143.375,438.5625)"/>
<path d="M0 0 C5.28 0 10.56 0 16 0 C16.15356844 11.97797122 16.30175022 23.9559956 16.4429636 35.93411922 C16.50869859 41.49542336 16.57632261 47.05669142 16.64819336 52.61791992 C16.71742242 57.98002645 16.78178143 63.34217091 16.84269524 68.70437813 C16.86685948 70.75502221 16.89280928 72.80564601 16.92053413 74.85624504 C16.95892566 77.71785177 16.99109378 80.57946336 17.02172852 83.44116211 C17.03467453 84.29783478 17.04762054 85.15450745 17.06095886 86.03713989 C17.07900194 88.0247819 17.04526206 90.0127915 17 92 C15.24440058 93.75559942 12.96417558 93.13221919 10.62890625 93.13671875 C9.92636719 93.13285156 9.22382813 93.12898437 8.5 93.125 C7.79746094 93.12886719 7.09492188 93.13273438 6.37109375 93.13671875 C1.12661378 93.12661378 1.12661378 93.12661378 0 92 C0.28730055 89.66055264 0.61936779 87.3260857 1 85 C0.34 85 -0.32 85 -1 85 C-1.23976563 85.60328125 -1.47953125 86.2065625 -1.7265625 86.828125 C-4.17487889 91.00378117 -8.56201368 92.49489204 -13 94 C-21.93319233 95.37163189 -29.31281499 93.41457231 -36.96484375 88.8203125 C-44.54256382 83.21578431 -48.53672963 73.0722763 -50 64 C-50.97779039 51.35249384 -48.0185269 40.78736933 -41.1875 30.1875 C-35.36578274 24.36578274 -28.58583414 21.06542705 -20.33203125 20.96875 C-12.40759597 21.40596022 -6.63985728 23.36014272 -1 29 C-0.67 19.43 -0.34 9.86 0 0 Z M-30.25 41.625 C-34.56676525 49.95019012 -34.89111784 59.07459604 -32.43359375 68.07421875 C-30.50168808 73.16341027 -27.36427176 76.69342876 -22.625 79.3125 C-16.38228612 80.94749649 -11.61095872 80.11719929 -6 77 C-0.67535905 72.03033511 0.54251499 67.08100377 1.18359375 59.9609375 C1.43507264 52.53491378 0.17821551 45.3542227 -4.52734375 39.44140625 C-8.23069712 35.81663863 -12.55377185 34.83187698 -17.5625 34.5625 C-23.36146951 34.78933044 -26.52806933 37.28274756 -30.25 41.625 Z " fill="#191919" transform="translate(495,448)"/>
<path d="M0 0 C2.45840605 -0.02691685 4.91651882 -0.04679802 7.375 -0.0625 C8.07367188 -0.07087891 8.77234375 -0.07925781 9.4921875 -0.08789062 C14.7734375 -0.11328125 14.7734375 -0.11328125 17 1 C17.72338867 2.63427734 17.72338867 2.63427734 18.41796875 4.8359375 C18.69568115 5.69533936 18.97339355 6.55474121 19.25952148 7.44018555 C19.56575439 8.40867432 19.8719873 9.37716309 20.1875 10.375 C22.96407538 18.95101879 25.84481646 27.4822563 28.828125 35.98828125 C29.16447464 36.94754517 29.50082428 37.90680908 29.84736633 38.8951416 C31.2184498 42.8013818 32.59139511 46.70694966 33.96932983 50.61077881 C34.94977481 53.38929158 35.9262792 56.16916475 36.90234375 58.94921875 C37.19993591 59.78794022 37.49752808 60.62666168 37.80413818 61.49079895 C39.14112044 65.3060318 40.36501516 68.99124711 41 73 C41.66 73 42.32 73 43 73 C43.26264648 71.71859131 43.52529297 70.43718262 43.79589844 69.11694336 C44.93857814 63.98720724 46.54065059 59.0882803 48.265625 54.12890625 C48.73944611 52.74710426 48.73944611 52.74710426 49.22283936 51.33738708 C50.22734718 48.41083794 51.23841372 45.48660902 52.25 42.5625 C53.24238495 39.68021619 54.23338676 36.79746677 55.22277832 33.91415405 C55.87373663 32.02322593 56.528898 30.13373926 57.18835449 28.24575806 C58.75621137 23.73829287 60.24945045 19.2327182 61.57617188 14.64794922 C61.82598816 13.81384018 62.07580444 12.97973114 62.33319092 12.12034607 C62.79519099 10.56315533 63.23434723 8.99892735 63.64581299 7.42762756 C64.27636719 5.33959961 64.27636719 5.33959961 66 2 C69.9267514 0.36757004 73.51202893 -0.28005653 77.75 -0.25 C78.48734375 -0.25515625 79.2246875 -0.2603125 79.984375 -0.265625 C82 0 82 0 85 2 C67.98637447 49.16581524 67.98637447 49.16581524 61.13549805 67.5300293 C58.57419432 74.40646909 56.08884834 81.30565712 53.71020508 88.24755859 C52.1032926 92.8967074 52.1032926 92.8967074 51 94 C48.30345146 94.07319621 45.63308542 94.09242537 42.9375 94.0625 C42.17888672 94.05798828 41.42027344 94.05347656 40.63867188 94.04882812 C38.75908129 94.0370068 36.87953101 94.01907078 35 94 C34.67 94.66 34.34 95.32 34 96 C30.43790426 89.3942356 27.8832668 82.51756274 25.36917114 75.46276855 C24.34138554 72.579321 23.30239973 69.69994855 22.26399231 66.8203125 C21.71073797 65.28599102 21.15800225 63.75148244 20.60575867 62.21679688 C17.60078457 53.8719146 14.54200338 45.54699902 11.47454834 37.22491455 C10.58497421 34.81098552 9.69696256 32.39648597 8.80908203 29.98193359 C8.38828369 28.83988968 8.38828369 28.83988968 7.95898438 27.67477417 C7.41267005 26.19203289 6.86739438 24.70890844 6.32324219 23.22537231 C5.07766286 19.84496231 3.80419836 16.48292435 2.44482422 13.14648438 C1.97705566 11.98955078 1.50928711 10.83261719 1.02734375 9.640625 C0.610896 8.64063477 0.19444824 7.64064453 -0.23461914 6.61035156 C-1.03638963 3.8758922 -0.9988993 2.62585606 0 0 Z " fill="#181819" transform="translate(325,447)"/>
<path d="M0 0 C7.15814564 8.99881166 7.34422432 18.23708496 7.3203125 29.33984375 C7.32126923 30.32497452 7.32222595 31.31010529 7.32321167 32.3250885 C7.3238884 34.39161239 7.3220697 36.45813847 7.31787109 38.5246582 C7.31247532 41.70203331 7.31785373 44.87926964 7.32421875 48.05664062 C7.32355867 50.06770865 7.32227895 52.07877658 7.3203125 54.08984375 C7.32233673 55.0439061 7.32436096 55.99796844 7.32644653 56.98094177 C7.32171829 58.29349693 7.32171829 58.29349693 7.31689453 59.63256836 C7.31609894 60.40563828 7.31530334 61.17870819 7.31448364 61.97520447 C7.1875 63.75 7.1875 63.75 6.1875 64.75 C4.23698179 65.0382109 2.27584629 65.25623182 0.3125 65.4375 C-1.29238281 65.59798828 -1.29238281 65.59798828 -2.9296875 65.76171875 C-5.8125 65.75 -5.8125 65.75 -8.8125 63.75 C-9.5 61.125 -9.5 61.125 -9.8125 58.75 C-10.4725 59.348125 -11.1325 59.94625 -11.8125 60.5625 C-19.2429695 65.98055067 -26.79873681 66.89563417 -35.8125 65.75 C-43.48639805 63.31681281 -48.17847393 59.39090307 -52.125 52.4375 C-53.85454113 45.67656648 -53.23952601 39.89501216 -49.8125 33.75 C-43.44012513 26.13855224 -36.35003005 23.79145443 -26.8125 22.75 C-20.81928278 22.28449481 -14.81797178 22.00105383 -8.8125 21.75 C-9.48499099 17.14293485 -10.21291718 13.59646987 -12.9375 9.75 C-17.23486194 6.76053082 -20.9381085 6.29614871 -25.96484375 7.08984375 C-29.2485685 8.02543013 -31.21137039 8.8922083 -33.203125 11.734375 C-34.46908084 14.16480569 -34.46908084 14.16480569 -35.8125 17.75 C-40.4325 17.09 -45.0525 16.43 -49.8125 15.75 C-51.04345057 12.05714829 -50.48613561 11.34230245 -48.8125 7.9375 C-45.08775292 0.89844629 -40.35989537 -3.27335913 -32.765625 -5.72265625 C-21.32334148 -8.8120728 -9.36451634 -7.49161307 0 0 Z M-21.8125 33.5 C-23.606875 33.77070313 -23.606875 33.77070313 -25.4375 34.046875 C-29.42273403 34.87713209 -32.66276034 35.63990653 -35.625 38.5 C-37.22361212 41.52894929 -37.29621136 43.36402051 -36.8125 46.75 C-35.16090002 49.40435711 -33.93250918 51.22999574 -31.0625 52.5625 C-29.94875 52.6553125 -29.94875 52.6553125 -28.8125 52.75 C-26.95625 52.9046875 -26.95625 52.9046875 -25.0625 53.0625 C-20.32795604 53.0005527 -16.70643383 51.36988175 -12.8125 48.75 C-9.16988557 44.98988188 -8.76781541 41.55957584 -8.75 36.5 C-8.770625 35.2625 -8.79125 34.025 -8.8125 32.75 C-9.1425 33.41 -9.4725 34.07 -9.8125 34.75 C-10.8334375 34.23179687 -10.8334375 34.23179687 -11.875 33.703125 C-15.54708084 32.51165196 -18.01423696 32.89424253 -21.8125 33.5 Z " fill="#181819" transform="translate(644.8125,476.25)"/>
<path d="M0 0 C8.14490846 6.69692474 11.57316498 15.34835486 12.6875 25.625 C13.04306241 29.32921738 12.86967228 32.3774553 12 36 C9.10420758 36.83712183 6.60740846 37.10137258 3.59863281 37.02172852 C2.7380426 37.00163223 1.87745239 36.98153595 0.99078369 36.96083069 C0.07085632 36.93379562 -0.84907104 36.90676056 -1.796875 36.87890625 C-2.74564514 36.85529526 -3.69441528 36.83168427 -4.67193604 36.80735779 C-7.69811521 36.73087006 -10.72402884 36.64678153 -13.75 36.5625 C-15.80337248 36.50926442 -17.85675787 36.45652412 -19.91015625 36.40429688 C-24.94027188 36.27527502 -29.97016273 36.13943665 -35 36 C-34.70645929 37.44132634 -34.40555358 38.88115399 -34.1015625 40.3203125 C-33.93479004 41.12227051 -33.76801758 41.92422852 -33.59619141 42.75048828 C-32.56058519 46.65797219 -30.78678765 48.94116288 -27.3125 51 C-21.87142493 53.45725971 -16.74970765 53.42777975 -11 52 C-7.69955524 50.22753892 -5.56691925 48.7207247 -3.2578125 45.78515625 C-1 44 -1 44 2.234375 44.265625 C3.39453125 44.59046875 4.5546875 44.9153125 5.75 45.25 C6.92046875 45.56453125 8.0909375 45.8790625 9.296875 46.203125 C10.18890625 46.46609375 11.0809375 46.7290625 12 47 C9.95160678 53.92317515 6.64196126 58.75964201 0.421875 62.5859375 C-8.98910242 67.34646117 -18.58674194 68.53546374 -28.9609375 66.38671875 C-37.37610561 63.37371692 -43.91836893 57.67935779 -48 49.75 C-52.65613455 39.59703993 -52.95820449 25.37461348 -49.4375 14.8125 C-45.24836869 5.56452155 -40.14839711 0.43813792 -30.96484375 -3.90625 C-20.283949 -7.84650103 -9.42573011 -6.13889802 0 0 Z M-29.6875 10.6875 C-32.56948692 13.56948692 -33.75737714 16.13406222 -35 20 C-34.67 21.32 -34.34 22.64 -34 24 C-23.77 24 -13.54 24 -3 24 C-4.74222103 14.76645933 -4.74222103 14.76645933 -10.75 8.75 C-17.97879512 6.34040163 -23.20746681 6.61864195 -29.6875 10.6875 Z " fill="#191919" transform="translate(825,475)"/>
<path d="M0 0 C8.80808395 6.93510058 11.18898194 14.45344813 12.58129883 25.27709961 C12.99441533 29.07142989 12.99658002 32.30763517 12 36 C7.10568512 37.31074078 2.33873158 37.03073607 -2.67578125 36.87890625 C-3.6009404 36.85529526 -4.52609955 36.83168427 -5.47929382 36.80735779 C-8.423863 36.73100288 -11.3681503 36.64685775 -14.3125 36.5625 C-16.31313741 36.5092511 -18.31378844 36.4565109 -20.31445312 36.40429688 C-25.20981271 36.27542597 -30.10493424 36.13956966 -35 36 C-34.55804842 37.60654863 -34.10546677 39.21017545 -33.6484375 40.8125 C-33.39755371 41.70582031 -33.14666992 42.59914063 -32.88818359 43.51953125 C-31.33751549 47.85014914 -28.62641132 50.05126006 -24.75 52.3125 C-19.49456313 53.62635922 -14.80204895 53.64601755 -9.6875 51.8125 C-6.85416667 50.14583333 -6.85416667 50.14583333 -5.1875 47.3125 C-3 45 -3 45 -0.75390625 44.6796875 C1.5174872 44.68677453 3.73962798 44.78265654 6 45 C6 45.66 6 46.32 6 47 C8.97 47.495 8.97 47.495 12 48 C9.52309926 55.09294302 4.47751987 61.06064996 -2.25 64.5 C-10.17703906 68.03768685 -21.11331157 68.71809116 -29.375 65.875 C-31.171875 65.03125 -31.171875 65.03125 -33 64 C-34.12148438 63.39671875 -34.12148438 63.39671875 -35.265625 62.78125 C-42.71336579 58.3421992 -47.16697466 52.155679 -50 44 C-52.12715022 34.09588018 -52.64522486 21.29044973 -48 12 C-41.56233215 2.6700466 -35.3918986 -3.21406029 -24.08203125 -5.58984375 C-15.03916638 -6.79326683 -7.61072959 -5.02619855 0 0 Z M-31.375 12.375 C-32.95332764 14.92460619 -34.1856666 17.11281795 -35 20 C-34.67 21.32 -34.34 22.64 -34 24 C-23.77 24 -13.54 24 -3 24 C-3.98962757 17.07260702 -4.83284627 13.55131828 -10.25 9.1875 C-17.96997492 5.85387447 -25.31450728 6.31450728 -31.375 12.375 Z " fill="#181819" transform="translate(897,475)"/>
<path d="M0 0 C5.94 0 11.88 0 18 0 C18.89203125 2.78308594 19.7840625 5.56617188 20.703125 8.43359375 C21.57904766 11.15460208 22.45667912 13.8750537 23.33447266 16.59545898 C23.93944852 18.47346539 24.5426712 20.35203757 25.14404297 22.23120117 C26.01319473 24.94603923 26.88881798 27.65871979 27.765625 30.37109375 C28.02933899 31.19959335 28.29305298 32.02809296 28.5647583 32.88169861 C28.82472595 33.68184891 29.0846936 34.48199921 29.35253906 35.30639648 C29.6856308 36.34231178 29.6856308 36.34231178 30.02545166 37.39915466 C31.50177445 41.33912058 33.29118186 45.15515918 35 49 C40.28 32.83 45.56 16.66 51 0 C56.61 0 62.22 0 68 0 C65.47991893 10.22802133 61.79926061 19.92045094 58.0625 29.75 C57.39121669 31.52273317 56.72007577 33.29552027 56.04907227 35.06835938 C54.69114222 38.65289933 53.32942234 42.23597378 51.96582031 45.81835938 C50.42057223 49.88277517 48.89386056 53.95372964 47.37715149 58.02886963 C46.32044338 60.86252001 45.25302753 63.69204986 44.18283081 66.52062988 C43.69256546 67.82262434 43.20653944 69.12622438 42.72512817 70.43151855 C36.41394759 87.5141705 36.41394759 87.5141705 28.625 92.375 C22.00061958 95.34454984 16.25029275 96.38159436 9 96 C8 95 8 95 7.90234375 92.05859375 C7.91394531 90.86363281 7.92554688 89.66867187 7.9375 88.4375 C7.94652344 87.23996094 7.95554687 86.04242187 7.96484375 84.80859375 C7.97644531 83.88175781 7.98804688 82.95492187 8 82 C9.010625 81.87625 10.02125 81.7525 11.0625 81.625 C16.65985384 80.775102 16.65985384 80.775102 22 79 C24.23234096 75.44220659 25 73.00780272 25 68.8125 C23.8034103 64.25050178 22.05925759 60.07895833 20.15625 55.76953125 C19 53 19 53 18.56884766 51.20385742 C17.83632638 48.36588766 16.79614751 45.70384026 15.7421875 42.96875 C15.28432861 41.77403076 14.82646973 40.57931152 14.35473633 39.34838867 C14.11284576 38.71951752 13.8709552 38.09064636 13.62173462 37.44271851 C8.85310218 25.03655672 4.31836545 12.57124163 0 0 Z " fill="#191919" transform="translate(520,471)"/>
<path d="M0 0 C5.03017806 4.29813551 6.99308775 8.51100992 8 15 C6.05909174 16.94090826 2.52706098 16.39919435 -0.0625 16.5625 C-1.35285156 16.64628906 -2.64320313 16.73007812 -3.97265625 16.81640625 C-4.97167969 16.87699219 -5.97070312 16.93757813 -7 17 C-7.40347656 16.04738281 -7.80695312 15.09476562 -8.22265625 14.11328125 C-9.68237111 10.94226953 -9.68237111 10.94226953 -12.12109375 9.79296875 C-12.88550781 9.59316406 -13.64992188 9.39335937 -14.4375 9.1875 C-15.19933594 8.97480469 -15.96117187 8.76210938 -16.74609375 8.54296875 C-17.48988281 8.36378906 -18.23367188 8.18460937 -19 8 C-19.75410156 7.81050781 -20.50820313 7.62101562 -21.28515625 7.42578125 C-21.85105469 7.28527344 -22.41695312 7.14476562 -23 7 C-23.33 7.66 -23.66 8.32 -24 9 C-25.33076989 9.34342449 -26.66431979 9.67619874 -28 10 C-30.28056299 11.88374462 -30.28056299 11.88374462 -30.4375 14.9375 C-30.32706038 18.1531563 -30.32706038 18.1531563 -27.75 19.875 C-24.87817138 21.2524219 -24.87817138 21.2524219 -21 21 C-21 21.66 -21 22.32 -21 23 C-19.72125 23.103125 -18.4425 23.20625 -17.125 23.3125 C-8.77095882 24.25972987 -0.38201003 26.19954869 5.47265625 32.61328125 C9.12489039 37.52701131 9.75557999 42.04516146 9.48828125 48.09375 C8.52988418 53.79812939 5.68262456 57.36165503 1.625 61.3125 C-8.04016326 67.52581924 -19.03942399 68.62141794 -30.18359375 66.3515625 C-36.40398337 64.33273979 -41.31682786 61.50474096 -45 56 C-46.64522452 52.36679586 -47.81899744 48.82644828 -49 45 C-41.08 44.01 -41.08 44.01 -33 43 C-32.46375 44.27875 -31.9275 45.5575 -31.375 46.875 C-29.86054709 49.86169111 -29.3121615 50.82577033 -26.3125 52.5 C-20.7019876 53.3468698 -15.97539748 53.59967424 -10.5 51.9375 C-7.62244217 50.12597708 -7.62244217 50.12597708 -7.125 46.3125 C-7.08375 45.219375 -7.0425 44.12625 -7 43 C-9.89522499 40.59051457 -12.27549468 39.4370719 -15.921875 38.53515625 C-16.86546875 38.29216797 -17.8090625 38.04917969 -18.78125 37.79882812 C-20.74478446 37.31181991 -22.70832601 36.82484027 -24.671875 36.33789062 C-30.57820536 34.81717106 -35.64765722 32.93617856 -41 30 C-41 29.34 -41 28.68 -41 28 C-41.66 28 -42.32 28 -43 28 C-46.38771459 23.7992339 -47.1410204 19.2706373 -47 14 C-45.89230281 8.56041557 -43.28719594 3.59636816 -39 0 C-26.79149756 -7.55375569 -12.10222314 -8.46936773 0 0 Z " fill="#181818" transform="translate(710,475)"/>
<path d="M0 0 C0 4.95 0 9.9 0 15 C-2.2584375 14.9071875 -2.2584375 14.9071875 -4.5625 14.8125 C-9.53302411 14.7984192 -12.60497973 15.75764272 -17 18 C-17.99 18.33 -18.98 18.66 -20 19 C-24.90410534 28.23289702 -23.294651 40.52987252 -23.125 50.625 C-23.0899254 53.39397132 -23.05921735 56.16290091 -23.03366089 58.93197632 C-23.01667882 60.64479931 -22.99353263 62.35757439 -22.96365356 64.07022095 C-22.93844927 66.0466904 -22.96392149 68.02369914 -23 70 C-24.99616554 71.99616554 -28.81701963 71.40983427 -31.5625 71.5625 C-32.62887695 71.62727539 -32.62887695 71.62727539 -33.71679688 71.69335938 C-35.47761912 71.79971777 -37.2387832 71.90038846 -39 72 C-39.33 71.01 -39.66 70.02 -40 69 C-39.505 68.01 -39.505 68.01 -39 67 C-39.66 66.67 -40.32 66.34 -41 66 C-40.34 66 -39.68 66 -39 66 C-39.08378906 64.89914062 -39.16757812 63.79828125 -39.25390625 62.6640625 C-40.56226545 42.45462294 -39.62092998 22.22176052 -39 2 C-39.66 1.67 -40.32 1.34 -41 1 C-35.39 1 -29.78 1 -24 1 C-23.67 3.64 -23.34 6.28 -23 9 C-22.29875 8.071875 -21.5975 7.14375 -20.875 6.1875 C-15.02965874 -0.8136997 -8.563634 -1.22337629 0 0 Z " fill="#171718" transform="translate(770,470)"/>
<path d="M0 0 C5.28 0 10.56 0 16 0 C16.14562699 6.29062116 16.28785175 12.58130795 16.42724609 18.87207031 C16.4748682 21.00132196 16.52333764 23.13055486 16.57275391 25.25976562 C16.83697932 36.6699898 17.05202701 48.07872344 17.09375 59.4921875 C17.1002356 60.43691925 17.10672119 61.381651 17.11340332 62.35501099 C17.11400757 63.21609467 17.11461182 64.07717834 17.11523438 64.96435547 C17.11728882 65.72247528 17.11934326 66.48059509 17.12145996 67.26168823 C17 69 17 69 16 70 C14.07051526 70.28898486 12.13010372 70.50662879 10.1875 70.6875 C8.60001953 70.84798828 8.60001953 70.84798828 6.98046875 71.01171875 C3.91592764 70.99966944 2.43226484 70.84262488 0 69 C-1.05252138 65.90927159 -1.12657872 63.00978545 -1.12939453 59.76342773 C-1.13254669 58.71811386 -1.13569885 57.67279999 -1.13894653 56.59580994 C-1.1369223 55.46977859 -1.13489807 54.34374725 -1.1328125 53.18359375 C-1.13376923 52.01675552 -1.13472595 50.8499173 -1.13571167 49.64772034 C-1.13639238 47.17554673 -1.1345457 44.70337134 -1.13037109 42.23120117 C-1.12505501 38.47635795 -1.13030233 34.7216362 -1.13671875 30.96679688 C-1.13605729 28.55989557 -1.13477473 26.15299434 -1.1328125 23.74609375 C-1.13483673 22.63423203 -1.13686096 21.5223703 -1.13894653 20.3768158 C-1.11870403 13.52233688 -0.7127899 6.81822118 0 0 Z " fill="#171718" transform="translate(417,471)"/>
<path d="M0 0 C1.43279297 0.00966797 1.43279297 0.00966797 2.89453125 0.01953125 C5.1875 0.1875 5.1875 0.1875 6.1875 1.1875 C6.33176614 5.85595228 6.22958415 10.51615953 6.1875 15.1875 C0.5775 15.1875 -5.0325 15.1875 -10.8125 15.1875 C-11.1425 10.8975 -11.4725 6.6075 -11.8125 2.1875 C-7.03961591 0.59653864 -4.7248885 -0.07109955 0 0 Z " fill="#282828" transform="translate(427.8125,446.8125)"/>
<path d="M0 0 C5.28 0 10.56 0 16 0 C16.16623763 4.8745989 16.32881292 9.74904147 16.48217773 14.62402344 C16.53538316 16.28066884 16.59069413 17.93724807 16.64819336 19.59375 C16.73070709 21.98162572 16.80552108 24.36964088 16.87890625 26.7578125 C16.90594131 27.49242706 16.93297638 28.22704163 16.96083069 28.98391724 C17.07964692 33.12417618 16.82910163 36.94103107 16 41 C15.34 41 14.68 41 14 41 C14 28.13 14 15.26 14 2 C10.37 2 6.74 2 3 2 C2.34 1.67 1.68 1.34 1 1 C1 23.44 1 45.88 1 69 C-0.92793955 65.14412091 -1.24927746 63.85559285 -1.24291992 59.76342773 C-1.24599655 58.71811386 -1.24907318 57.67279999 -1.25224304 56.59580994 C-1.24505753 55.46977859 -1.23787201 54.34374725 -1.23046875 53.18359375 C-1.23001053 52.01675552 -1.22955231 50.8499173 -1.2290802 49.64772034 C-1.22605826 47.17553696 -1.21817373 44.70335548 -1.20581055 42.23120117 C-1.18768741 38.47632977 -1.18530008 34.72170723 -1.18554688 30.96679688 C-1.18062601 28.55989373 -1.17479523 26.15299224 -1.16796875 23.74609375 C-1.16685593 22.63423203 -1.1657431 21.5223703 -1.16459656 20.3768158 C-1.12364589 13.52557905 -0.70930272 6.81532013 0 0 Z " fill="#2A2A2B" transform="translate(417,471)"/>
<path d="M0 0 C0.83272934 0.00222061 1.66545868 0.00444122 2.52342224 0.00672913 C3.46432205 0.00680466 4.40522186 0.00688019 5.37463379 0.00695801 C6.39754013 0.01211929 7.42044647 0.01728058 8.47434998 0.02259827 C9.51614914 0.02401321 10.5579483 0.02542816 11.63131714 0.02688599 C14.97355467 0.03250372 18.31572629 0.04505922 21.65794373 0.05775452 C23.91770839 0.06276723 26.17747409 0.06733053 28.4372406 0.07142639 C33.98999763 0.08247891 39.54271597 0.09923428 45.09544373 0.12025452 C45.59044373 1.60525452 45.59044373 1.60525452 46.09544373 3.12025452 C41.20112884 4.43099529 36.43417531 4.15099059 31.41966248 3.99916077 C30.49450333 3.97554977 29.56934418 3.95193878 28.6161499 3.9276123 C25.67158073 3.8512574 22.72729343 3.76711226 19.78294373 3.68275452 C17.78230631 3.62950561 15.78165529 3.57676542 13.7809906 3.52455139 C8.88563102 3.39568049 3.99050949 3.25982418 -0.90455627 3.12025452 C-0.57455627 6.42025452 -0.24455627 9.72025452 0.09544373 13.12025452 C-2.73237202 10.29243877 -2.89249531 8.47002253 -3.02955627 4.49525452 C-2.86977644 0.18119894 -2.86977644 0.18119894 0 0 Z " fill="#1F2020" transform="translate(862.9045562744141,507.87974548339844)"/>
<path d="M0 0 C1.0415625 -0.03287109 2.083125 -0.06574219 3.15625 -0.09960938 C10.81707731 -0.15348987 10.81707731 -0.15348987 14.73828125 2.71484375 C18.10155798 7.56826794 20.1889679 12.42184245 19.625 18.4375 C17.625 17.4375 17.625 17.4375 16.625 14.78515625 C16.295 13.70105469 15.965 12.61695313 15.625 11.5 C14.36693668 7.0306905 14.36693668 7.0306905 11.625 3.4375 C9.10122345 3.15941783 9.10122345 3.15941783 6.1796875 3.2421875 C4.56513672 3.25185547 4.56513672 3.25185547 2.91796875 3.26171875 C1.79003906 3.27847656 0.66210938 3.29523438 -0.5 3.3125 C-2.20349609 3.32603516 -2.20349609 3.32603516 -3.94140625 3.33984375 C-6.75281299 3.36346902 -9.56380298 3.39640987 -12.375 3.4375 C-10.80335717 9.80069266 -9.23240148 16.15091037 -7.375 22.4375 C-8.365 22.1075 -9.355 21.7775 -10.375 21.4375 C-13.15147101 15.55026716 -15.36796322 8.96268686 -14.375 2.4375 C-9.82758612 -0.59410925 -5.35162217 0.02958513 0 0 Z " fill="#575F97" transform="translate(143.375,438.5625)"/>
<path d="M0 0 C0.33 0 0.66 0 1 0 C1.02527062 6.39037231 1.04283317 12.78073183 1.05493164 19.17114258 C1.05997308 21.34692873 1.06680607 23.52271147 1.07543945 25.69848633 C1.08751338 28.81853067 1.09323005 31.93853038 1.09765625 35.05859375 C1.10281754 36.03775253 1.10797882 37.01691132 1.11329651 38.02574158 C1.11337204 38.92659988 1.11344757 39.82745819 1.11352539 40.75561523 C1.115746 41.55281479 1.11796661 42.35001434 1.12025452 43.17137146 C1 45 1 45 0 46 C-1.97284642 46.26149658 -3.95425667 46.45992624 -5.9375 46.625 C-7.01902344 46.72039063 -8.10054687 46.81578125 -9.21484375 46.9140625 C-12 47 -12 47 -14 46 C-14 43.03 -14 40.06 -14 37 C-13.67 37 -13.34 37 -13 37 C-12.67 38.98 -12.34 40.96 -12 43 C-8.7 43 -5.4 43 -2 43 C-0.93196111 33.97103257 -0.67657419 24.95396418 -0.4375 15.875 C-0.39420698 14.33071997 -0.35058967 12.786449 -0.30664062 11.2421875 C-0.20069059 7.49488861 -0.0991213 3.74748647 0 0 Z " fill="#313131" transform="translate(651,495)"/>
<path d="M0 0 C5.61 0 11.22 0 17 0 C17 3.96 17 7.92 17 12 C16.34 12 15.68 12 15 12 C15 8.7 15 5.4 15 2 C11.04 2 7.08 2 3 2 C3 15.53 3 29.06 3 43 C2.67 43 2.34 43 2 43 C2 29.14 2 15.28 2 1 C1.34 0.67 0.68 0.34 0 0 Z " fill="#0B0C0C" transform="translate(729,471)"/>
<path d="M0 0 C0.61875 0.804375 1.2375 1.60875 1.875 2.4375 C3.74164041 5.03874519 3.74164041 5.03874519 6 6 C8.24974161 6.15495763 10.50371536 6.25010928 12.7578125 6.31640625 C13.42086395 6.33718735 14.08391541 6.35796844 14.76705933 6.37937927 C16.88626694 6.44479231 19.005599 6.50372105 21.125 6.5625 C22.56121081 6.60569309 23.99740902 6.64930764 25.43359375 6.69335938 C28.95559594 6.80046499 32.47773825 6.90175575 36 7 C36 7.66 36 8.32 36 9 C29.93903398 9.89792089 24.12177382 10.17147826 18 10 C16.34097656 9.99226562 16.34097656 9.99226562 14.6484375 9.984375 C6.06539548 9.71312762 6.06539548 9.71312762 3.0625 7.703125 C0.81717581 5.12610519 0 3.42795543 0 0 Z " fill="#4F5898" transform="translate(166,552)"/>
<path d="M0 0 C0.66 0.33 1.32 0.66 2 1 C2 2.98 2 4.96 2 7 C-9.55 7 -21.1 7 -33 7 C-29.32070555 4.54713704 -27.52622093 4.76771122 -23.14453125 4.8046875 C-22.48289474 4.8075174 -21.82125824 4.81034729 -21.13957214 4.81326294 C-19.03036263 4.82444082 -16.92158075 4.84954019 -14.8125 4.875 C-13.38086552 4.88503293 -11.94922436 4.89415824 -10.51757812 4.90234375 C-7.01158023 4.92437205 -3.50583187 4.95888515 0 5 C0 3.35 0 1.7 0 0 Z " fill="#0D0C0C" transform="translate(822,494)"/>
<path d="M0 0 C1.26857183 3.57284008 0.71910659 5.67621115 -0.51171875 9.2109375 C-0.85783203 10.20867188 -1.20394531 11.20640625 -1.56054688 12.234375 C-1.93244141 13.27078125 -2.30433594 14.3071875 -2.6875 15.375 C-3.21633789 16.91800781 -3.21633789 16.91800781 -3.75585938 18.4921875 C-5.64367109 23.84846499 -7.55317802 28.47166955 -11 33 C-11.99 32.67 -12.98 32.34 -14 32 C-13.08190552 30.94462036 -13.08190552 30.94462036 -12.14526367 29.86791992 C-9.96600566 26.95455428 -8.86233497 24.53463415 -7.67578125 21.11328125 C-7.28712891 20.01048828 -6.89847656 18.90769531 -6.49804688 17.77148438 C-6.10681641 16.63001953 -5.71558594 15.48855469 -5.3125 14.3125 C-4.51770802 12.03748744 -3.72217328 9.76273419 -2.92578125 7.48828125 C-2.57942627 6.48321533 -2.23307129 5.47814941 -1.8762207 4.44262695 C-1 2 -1 2 0 0 Z " fill="#4E5896" transform="translate(218,527)"/>
<path d="M0 0 C0.33 0.99 0.66 1.98 1 3 C1.99 2.67 2.98 2.34 4 2 C5.77736505 1.97270773 7.5560857 2.00985347 9.33203125 2.0859375 C10.37810547 2.12976563 11.42417969 2.17359375 12.50195312 2.21875 C14.14067383 2.29609375 14.14067383 2.29609375 15.8125 2.375 C16.89337891 2.41882813 17.97425781 2.46265625 19.08789062 2.5078125 C24.14748474 2.73144097 29.00900183 3.09690653 34 4 C34 4.33 34 4.66 34 5 C23.11 5 12.22 5 1 5 C0.67 3.35 0.34 1.7 0 0 Z " fill="#0B0B0B" transform="translate(860,496)"/>
<path d="M0 0 C2 1 2 1 3.05322266 3.60449219 C3.4197998 4.74047852 3.78637695 5.87646484 4.1640625 7.046875 C4.56367188 8.284375 4.96328125 9.521875 5.375 10.796875 C5.57996094 11.44591797 5.78492188 12.09496094 5.99609375 12.76367188 C6.61917505 14.73160258 7.25783204 16.69396395 7.8984375 18.65625 C11.2718261 29.21451823 11.2718261 29.21451823 11 34 C7.76801712 29.15202569 6.27193798 23.60833634 4.375 18.125 C3.74464844 16.34802734 3.74464844 16.34802734 3.1015625 14.53515625 C2.70453125 13.39175781 2.3075 12.24835938 1.8984375 11.0703125 C1.53411621 10.02633301 1.16979492 8.98235352 0.79443359 7.90673828 C0.03086414 5.11292823 -0.16096611 2.87685523 0 0 Z " fill="#4E5896" transform="translate(172,485)"/>
<path d="M0 0 C0 3.96 0 7.92 0 12 C-4.95 12 -9.9 12 -15 12 C-15 8.04 -15 4.08 -15 0 C-12.87562788 -0.19448477 -10.75046809 -0.38038289 -8.625 -0.5625 C-7.44164062 -0.66691406 -6.25828125 -0.77132813 -5.0390625 -0.87890625 C-2 -1 -2 -1 0 0 Z M-14 1 C-14 4.3 -14 7.6 -14 11 C-10.04 11 -6.08 11 -2 11 C-2 7.7 -2 4.4 -2 1 C-5.96 1 -9.92 1 -14 1 Z " fill="#040404" transform="translate(433,449)"/>
<path d="M0 0 C4.3461823 0.88396928 6.12615941 2.5513913 9 6 C13.29336691 12.79435734 13.47959491 19.12665022 13 27 C12.67 27 12.34 27 12 27 C11.85304688 25.83984375 11.85304688 25.83984375 11.703125 24.65625 C10.20362058 14.21142612 7.19126447 7.67068211 0 0 Z " fill="#131313" transform="translate(823,476)"/>
<path d="M0 0 C0.66 0 1.32 0 2 0 C2.33 8.25 2.66 16.5 3 25 C1.68 24.67 0.36 24.34 -1 24 C-0.67 23.34 -0.34 22.68 0 22 C-0.66 21.67 -1.32 21.34 -2 21 C-1.34 21 -0.68 21 0 21 C0 14.07 0 7.14 0 0 Z " fill="#0C0B0C" transform="translate(731,515)"/>
<path d="M0 0 C3.24969769 -0.11638036 6.4988583 -0.18730581 9.75 -0.25 C10.67039063 -0.28351563 11.59078125 -0.31703125 12.5390625 -0.3515625 C19.35578279 -0.45035555 19.35578279 -0.45035555 22.53125 1.76953125 C25.61300798 6.44954138 27.53274399 11.31739748 27 17 C25 16 25 16 24 13.34765625 C23.67 12.26355469 23.34 11.17945313 23 10.0625 C21.74193668 5.5931905 21.74193668 5.5931905 19 2 C16.96939341 1.63105418 16.96939341 1.63105418 14.6484375 1.5859375 C13.79765625 1.54726563 12.946875 1.50859375 12.0703125 1.46875 C11.18085938 1.4378125 10.29140625 1.406875 9.375 1.375 C8.4778125 1.33632813 7.580625 1.29765625 6.65625 1.2578125 C4.4377073 1.16340643 2.21917597 1.07783252 0 1 C0 0.67 0 0.34 0 0 Z " fill="#4A5494" transform="translate(136,440)"/>
<path d="M0 0 C3.24958704 3.24958704 4.14576368 7.58761994 5.625 11.875 C5.94984375 12.78636719 6.2746875 13.69773437 6.609375 14.63671875 C6.91617188 15.51714844 7.22296875 16.39757812 7.5390625 17.3046875 C7.81959473 18.10890137 8.10012695 18.91311523 8.38916016 19.74169922 C9 22 9 22 9 26 C8.34 26 7.68 26 7 26 C5.82091891 22.60834995 4.65896034 19.21107288 3.5 15.8125 C3.16613281 14.85279297 2.83226562 13.89308594 2.48828125 12.90429688 C2.17246094 11.97294922 1.85664063 11.04160156 1.53125 10.08203125 C1.23798828 9.22843018 0.94472656 8.3748291 0.64257812 7.49536133 C-0.02681173 4.89588043 -0.11719018 2.67235471 0 0 Z " fill="#4F5897" transform="translate(143,484)"/>
<path d="M0 0 C0.33 0 0.66 0 1 0 C0.51234983 5.36415189 -0.50973389 9.96650548 -2.37890625 15.01953125 C-3.14961964 17.13115979 -3.14961964 17.13115979 -3 20 C-3.66 20 -4.32 20 -5 20 C-5.12375 20.804375 -5.2475 21.60875 -5.375 22.4375 C-5.684375 23.7059375 -5.684375 23.7059375 -6 25 C-6.66 25.33 -7.32 25.66 -8 26 C-6.36231563 16.99273599 -3.13020303 8.57360642 0 0 Z " fill="#4F5997" transform="translate(227,500)"/>
<path d="M0 0 C0.66 0 1.32 0 2 0 C2 3.96 2 7.92 2 12 C-2.95 12.33 -7.9 12.66 -13 13 C-7.91331968 9.18498976 -6.13376885 9.72939255 0 10 C0 6.7 0 3.4 0 0 Z " fill="#0E0E0E" transform="translate(767,472)"/>
<path d="M0 0 C0.79277344 0.01353516 1.58554688 0.02707031 2.40234375 0.04101562 C4.35185564 0.07624777 6.30101626 0.13005179 8.25 0.1875 C8.25 0.8475 8.25 1.5075 8.25 2.1875 C6.62191406 2.20876953 6.62191406 2.20876953 4.9609375 2.23046875 C3.51558387 2.27739582 2.07027269 2.32564305 0.625 2.375 C-0.44427734 2.38370117 -0.44427734 2.38370117 -1.53515625 2.39257812 C-7.20640384 2.6267122 -9.72396275 4.20591426 -13.75 8.1875 C-13.44616494 5.37702568 -13.17373356 3.65537248 -11.25 1.53125 C-7.53885934 -0.46348811 -4.13949539 -0.13386428 0 0 Z " fill="#4B5592" transform="translate(231.75,438.8125)"/>
<path d="M0 0 C0.66 0 1.32 0 2 0 C2.042721 1.66611905 2.04063832 3.33382885 2 5 C0.00383446 6.99616554 -3.81701963 6.40983427 -6.5625 6.5625 C-7.62887695 6.62727539 -7.62887695 6.62727539 -8.71679688 6.69335938 C-10.47761912 6.79971777 -12.2387832 6.90038846 -14 7 C-14 5 -14 5 -12 3 C-9.1796875 2.8046875 -9.1796875 2.8046875 -5.875 2.875 C-4.77929688 2.89304687 -3.68359375 2.91109375 -2.5546875 2.9296875 C-1.71164062 2.95289063 -0.86859375 2.97609375 0 3 C0 2.01 0 1.02 0 0 Z " fill="#282828" transform="translate(745,535)"/>
<path d="M0 0 C1.14296838 3.42890515 0.82108905 4.45546282 -0.14453125 7.8515625 C-0.40943359 8.78484375 -0.67433594 9.718125 -0.94726562 10.6796875 C-1.23279297 11.65164063 -1.51832031 12.62359375 -1.8125 13.625 C-2.08642578 14.6046875 -2.36035156 15.584375 -2.64257812 16.59375 C-4.20387935 22.00027031 -4.20387935 22.00027031 -5 24 C-5.66 24.33 -6.32 24.66 -7 25 C-6.42958936 19.23755617 -5.29316462 14.05983041 -3.5 8.5625 C-3.27441406 7.84384766 -3.04882812 7.12519531 -2.81640625 6.38476562 C-1.14358313 1.14358313 -1.14358313 1.14358313 0 0 Z " fill="#4B5696" transform="translate(202,495)"/>
<path d="M0 0 C0.33 0.99 0.66 1.98 1 3 C6.28 3 11.56 3 17 3 C17.33 2.34 17.66 1.68 18 1 C18 2.32 18 3.64 18 5 C12.72 5 7.44 5 2 5 C1.67 5.66 1.34 6.32 1 7 C0.67 4.69 0.34 2.38 0 0 Z " fill="#2A2A2B" transform="translate(358,536)"/>
<path d="M0 0 C2.45840605 -0.02691685 4.91651882 -0.04679802 7.375 -0.0625 C8.07367188 -0.07087891 8.77234375 -0.07925781 9.4921875 -0.08789062 C14.7734375 -0.11328125 14.7734375 -0.11328125 17 1 C16.67 1.66 16.34 2.32 16 3 C9.07 2.505 9.07 2.505 2 2 C2.556875 3.6396875 2.556875 3.6396875 3.125 5.3125 C3.41375 6.529375 3.7025 7.74625 4 9 C3.01 10.485 3.01 10.485 2 12 C1.4654744 10.75579353 0.94791389 9.50429064 0.4375 8.25 C0.14746094 7.55390625 -0.14257812 6.8578125 -0.44140625 6.140625 C-1.07831803 3.69987216 -0.80248831 2.3596345 0 0 Z " fill="#2C2D2E" transform="translate(325,447)"/>
<path d="M0 0 C0 0.33 0 0.66 0 1 C-0.95261719 1.12117188 -1.90523437 1.24234375 -2.88671875 1.3671875 C-4.14097656 1.53476562 -5.39523437 1.70234375 -6.6875 1.875 C-7.92886719 2.03742188 -9.17023437 2.19984375 -10.44921875 2.3671875 C-15.26279078 3.22505182 -18.75977145 4.24815641 -22 8 C-22.33 7.01 -22.66 6.02 -23 5 C-14.75419264 -0.54494738 -9.81843756 -1.23922027 0 0 Z " fill="#212121" transform="translate(630,509)"/>
<path d="M0 0 C0 0.33 0 0.66 0 1 C-2.93626007 1.38910684 -5.87302605 1.76176981 -8.8125 2.125 C-9.64587891 2.23714844 -10.47925781 2.34929687 -11.33789062 2.46484375 C-12.54155273 2.60986328 -12.54155273 2.60986328 -13.76953125 2.7578125 C-14.50792236 2.8520752 -15.24631348 2.94633789 -16.00708008 3.04345703 C-18 3 -18 3 -21 1 C-13.66847392 -1.07726572 -7.53537771 -0.94351599 0 0 Z " fill="#212121" transform="translate(815,470)"/>
<path d="M0 0 C0.66 0 1.32 0 2 0 C2.67610423 1.89248819 3.34050439 3.7891602 4 5.6875 C4.37125 6.74324219 4.7425 7.79898437 5.125 8.88671875 C5.9391857 11.78362056 6.17709796 14.01700623 6 17 C3.0082752 14.51946627 2.2578133 12.22123329 1.3125 8.5 C1.06113281 7.5409375 0.80976563 6.581875 0.55078125 5.59375 C0 3 0 3 0 0 Z " fill="#111111" transform="translate(357,498)"/>
<path d="M0 0 C0 0.66 0 1.32 0 2 C-3.18824568 3.59412284 -6.62896662 3.10174735 -10.125 3.0625 C-10.87910156 3.05798828 -11.63320313 3.05347656 -12.41015625 3.04882812 C-14.27347127 3.03703499 -16.13674555 3.01909942 -18 3 C-18 2.67 -18 2.34 -18 2 C-15.7505194 1.66317938 -13.50039296 1.33066999 -11.25 1 C-9.99703125 0.814375 -8.7440625 0.62875 -7.453125 0.4375 C-4 0 -4 0 0 0 Z " fill="#0F0F0F" transform="translate(628,538)"/>
<path d="M0 0 C4.22435427 1.56457565 6.49058647 4.343426 9 8 C8.8125 10.875 8.8125 10.875 8 13 C7.73445312 12.41476562 7.46890625 11.82953125 7.1953125 11.2265625 C5.6090019 8.2716702 3.49184125 6.05086912 1.2421875 3.5859375 C0 2 0 2 0 0 Z " fill="#121213" transform="translate(896,476)"/>
<path d="M0 0 C2.10478604 0.11409682 4.20884577 0.24165361 6.3125 0.375 C7.48425781 0.44460938 8.65601563 0.51421875 9.86328125 0.5859375 C13 1 13 1 16 3 C11.05 3 6.1 3 1 3 C0.67 2.01 0.34 1.02 0 0 Z " fill="#262626" transform="translate(687,469)"/>
<path d="M0 0 C-0.33 0.99 -0.66 1.98 -1 3 C-2.9375 3.5625 -2.9375 3.5625 -5 4 C-7.5654594 6.5654594 -7.54046087 8.47686668 -8 12 C-8.33 12 -8.66 12 -9 12 C-9.23827469 9.14070376 -9.43309153 6.80172792 -9 4 C-5.87254514 0.52505016 -4.73718042 0 0 0 Z " fill="#212121" transform="translate(687,481)"/>
<path d="M0 0 C0.60328125 0.33773438 1.2065625 0.67546875 1.828125 1.0234375 C2.62734375 1.46945312 3.4265625 1.91546875 4.25 2.375 C5.43335938 3.03628906 5.43335938 3.03628906 6.640625 3.7109375 C8.73914197 4.85747823 10.8536077 5.94649552 13 7 C10.61786119 7.82973374 9.34106905 8.10314333 6.89453125 7.36328125 C6.20746094 7.01652344 5.52039063 6.66976563 4.8125 6.3125 C4.11769531 5.97863281 3.42289063 5.64476562 2.70703125 5.30078125 C0.59533633 3.69164073 0.36363205 2.57798841 0 0 Z " fill="#111111" transform="translate(668,501)"/>
<path d="M0 0 C2.64 0.33 5.28 0.66 8 1 C7.34 2.98 6.68 4.96 6 7 C5.566875 6.54625 5.13375 6.0925 4.6875 5.625 C2.89201658 3.79975666 2.89201658 3.79975666 0 2 C0 1.34 0 0.68 0 0 Z " fill="#212122" transform="translate(829,521)"/>
<path d="M0 0 C0.99 0.33 1.98 0.66 3 1 C1.515 6.445 1.515 6.445 0 12 C-2 9 -2 9 -1.7578125 6.73828125 C-1.44457031 5.53751953 -1.44457031 5.53751953 -1.125 4.3125 C-0.92132813 3.50425781 -0.71765625 2.69601562 -0.5078125 1.86328125 C-0.34023438 1.24839844 -0.17265625 0.63351562 0 0 Z " fill="#1E1E1F" transform="translate(377,528)"/>
<path d="M0 0 C2.97 0.99 5.94 1.98 9 3 C9 3.33 9 3.66 9 4 C6.98177083 3.96744792 4.96354167 3.93489583 2.9453125 3.90234375 C0.91814596 3.87350758 0.91814596 3.87350758 -1 5 C-0.67 3.35 -0.34 1.7 0 0 Z " fill="#121211" transform="translate(823,519)"/>
<path d="M0 0 C1.32 0.33 2.64 0.66 4 1 C5.47075246 5.41225737 6.36884358 8.48281619 5 13 C4.67 13 4.34 13 4 13 C3.87882812 12.39671875 3.75765625 11.7934375 3.6328125 11.171875 C3.46523438 10.37265625 3.29765625 9.5734375 3.125 8.75 C2.96257812 7.96109375 2.80015625 7.1721875 2.6328125 6.359375 C2.00849925 4.03168856 1.15161458 2.10968048 0 0 Z " fill="#1F2020" transform="translate(491,489)"/>
<path d="M0 0 C-0.99 1.485 -0.99 1.485 -2 3 C-4.1640625 3.29296875 -4.1640625 3.29296875 -6.625 3.1875 C-7.44226563 3.16042969 -8.25953125 3.13335937 -9.1015625 3.10546875 C-9.72804688 3.07066406 -10.35453125 3.03585937 -11 3 C-11 2.34 -11 1.68 -11 1 C-7.27569643 0.30710631 -3.78916254 -0.11144596 0 0 Z " fill="#1F2020" transform="translate(881,469)"/>
<path d="M0 0 C0 0.99 0 1.98 0 3 C-2.40545638 4.20272819 -3.94996953 4.10071472 -6.625 4.0625 C-7.85089844 4.04896484 -7.85089844 4.04896484 -9.1015625 4.03515625 C-10.04128906 4.01775391 -10.04128906 4.01775391 -11 4 C-8.6870518 1.6870518 -7.52095125 1.50419025 -4.375 0.875 C-3.55773437 0.70742188 -2.74046875 0.53984375 -1.8984375 0.3671875 C-1.27195312 0.24601563 -0.64546875 0.12484375 0 0 Z " fill="#121113" transform="translate(545,562)"/>
<path d="M0 0 C2.475 0.495 2.475 0.495 5 1 C5 3.64 5 6.28 5 9 C4.34 9 3.68 9 3 9 C3 6.69 3 4.38 3 2 C2.01 1.67 1.02 1.34 0 1 C0 0.67 0 0.34 0 0 Z " fill="#4D5797" transform="translate(242,440)"/>
<path d="M0 0 C0.66 0 1.32 0 2 0 C2.99 2.97 3.98 5.94 5 9 C4.34 9.66 3.68 10.32 3 11 C2.01 7.37 1.02 3.74 0 0 Z " fill="#1E1E1E" transform="translate(352,524)"/>
<path d="M0 0 C0.66 0 1.32 0 2 0 C2.38218767 1.65614657 2.71395102 3.32457024 3 5 C2 6 2 6 -0.06640625 6.09765625 C-0.89011719 6.08605469 -1.71382812 6.07445312 -2.5625 6.0625 C-3.38878906 6.05347656 -4.21507812 6.04445313 -5.06640625 6.03515625 C-5.70449219 6.02355469 -6.34257813 6.01195312 -7 6 C-7 5.67 -7 5.34 -7 5 C-5.02 4.67 -3.04 4.34 -1 4 C-0.67 2.68 -0.34 1.36 0 0 Z " fill="#282828" transform="translate(715,485)"/>
<path d="M0 0 C4.95 0 9.9 0 15 0 C14.67 0.99 14.34 1.98 14 3 C13.34 3 12.68 3 12 3 C12 2.34 12 1.68 12 1 C6.06 1.495 6.06 1.495 0 2 C0 1.34 0 0.68 0 0 Z " fill="#070707" transform="translate(572,472)"/>
<path d="M0 0 C0.886875 0.12375 1.77375 0.2475 2.6875 0.375 C1.7284375 0.5296875 1.7284375 0.5296875 0.75 0.6875 C0.069375 0.914375 -0.61125 1.14125 -1.3125 1.375 C-1.6425 2.365 -1.9725 3.355 -2.3125 4.375 C-4.375 6.0625 -4.375 6.0625 -6.3125 7.375 C-6.9725 7.045 -7.6325 6.715 -8.3125 6.375 C-4.12788462 0.46730769 -4.12788462 0.46730769 0 0 Z " fill="#272727" transform="translate(897.3125,519.625)"/>
<path d="M0 0 C1.32 0.33 2.64 0.66 4 1 C3.67 3.31 3.34 5.62 3 8 C2.731875 7.360625 2.46375 6.72125 2.1875 6.0625 C1.11332248 3.66868314 1.11332248 3.66868314 -2 3 C-1.34 2.01 -0.68 1.02 0 0 Z " fill="#242424" transform="translate(634,507)"/>
<path d="M0 0 C0.33 0 0.66 0 1 0 C1 1.98 1 3.96 1 6 C-0.65 6.66 -2.3 7.32 -4 8 C-2.87548273 5.0280615 -1.77706209 2.66559313 0 0 Z " fill="#1E1F1F" transform="translate(854,480)"/>
<path d="M0 0 C0.66 0 1.32 0 2 0 C1.49287967 3.71888239 0.88391785 6.73454239 -1 10 C-2.46726798 6.18510326 -1.43336419 3.70988378 0 0 Z " fill="#121212" transform="translate(382,476)"/>
<path d="M0 0 C1.125 1.5625 1.125 1.5625 2 4 C1.125 7.75 1.125 7.75 0 11 C-0.33 11 -0.66 11 -1 11 C-1.02688151 9.35425434 -1.04634123 7.70838587 -1.0625 6.0625 C-1.07410156 5.14597656 -1.08570313 4.22945312 -1.09765625 3.28515625 C-1 1 -1 1 0 0 Z " fill="#0B0B0B" transform="translate(432,517)"/>
<path d="M0 0 C0.99 0.99 1.98 1.98 3 3 C2.1875 4.9375 2.1875 4.9375 1 7 C0.01 7.33 -0.98 7.66 -2 8 C-1.34 5.36 -0.68 2.72 0 0 Z " fill="#202020" transform="translate(379,484)"/>
<path d="M0 0 C3.1875 0.875 3.1875 0.875 6 2 C6 2.99 6 3.98 6 5 C3.03 4.01 0.06 3.02 -3 2 C-2.01 1.34 -1.02 0.68 0 0 Z " fill="#1F1E1F" transform="translate(883,481)"/>
<path d="M0 0 C2.31 1.98 4.62 3.96 7 6 C6.01 6.33 5.02 6.66 4 7 C2 5.1875 2 5.1875 0 3 C0 2.01 0 1.02 0 0 Z " fill="#0D0D0D" transform="translate(666,529)"/>
<path d="M0 0 C2.31 1.98 4.62 3.96 7 6 C6.01 6.33 5.02 6.66 4 7 C2 5.1875 2 5.1875 0 3 C0 2.01 0 1.02 0 0 Z " fill="#131313" transform="translate(781,528)"/>
<path d="M0 0 C0.33 0 0.66 0 1 0 C0.67 2.64 0.34 5.28 0 8 C-0.99 8.33 -1.98 8.66 -3 9 C-2.01 6.03 -1.02 3.06 0 0 Z " fill="#121212" transform="translate(389,499)"/>
<path d="M0 0 C0.33 0 0.66 0 1 0 C0.67 3.63 0.34 7.26 0 11 C-0.33 11 -0.66 11 -1 11 C-2.25 3.375 -2.25 3.375 0 0 Z " fill="#1D1E1E" transform="translate(462,492)"/>
<path d="M0 0 C2.625 -0.1875 2.625 -0.1875 5 0 C5.33 0.66 5.66 1.32 6 2 C3.29120665 3.35439668 0.99066732 3.06501451 -2 3 C-1.34 2.01 -0.68 1.02 0 0 Z " fill="#0E0F0F" transform="translate(758,470)"/>
<path d="M0 0 C5.75 1.625 5.75 1.625 8 5 C4.33776842 4.50510384 2.33006074 3.94323463 0 1 C0 0.67 0 0.34 0 0 Z " fill="#232424" transform="translate(706,502)"/>
<path d="M0 0 C0.33 0.66 0.66 1.32 1 2 C0.0625 4.125 0.0625 4.125 -1 6 C-3.97 5.505 -3.97 5.505 -7 5 C-6.401875 4.731875 -5.80375 4.46375 -5.1875 4.1875 C-3.02775192 3.01506533 -1.64209744 1.80630718 0 0 Z " fill="#252626" transform="translate(610,488)"/>
<path d="M0 0 C3.63 0.33 7.26 0.66 11 1 C7 3 7 3 4.9375 2.75 C3 2 3 2 0 0 Z " fill="#2D2D2D" transform="translate(472,469)"/>
<path d="M0 0 C3 1 3 1 3 1 Z " fill="#474646" transform="translate(879,543)"/>
<path d="M0 0 C3 1 3 1 3 1 Z " fill="#484646" transform="translate(793,541)"/>
<path d="" fill="#3E3E3C" transform="translate(0,0)"/>
<path d="M0 0 C0.33 0.66 0.66 1.32 1 2 C0.34 1.67 -0.32 1.34 -1 1 C-0.67 0.67 -0.34 0.34 0 0 Z " fill="#403E3E" transform="translate(816,496)"/>
<path d="M0 0 C0.99 0.495 0.99 0.495 2 1 C1.01 1.495 1.01 1.495 0 2 C0 1.34 0 0.68 0 0 Z " fill="#3B3A3A" transform="translate(761,485)"/>
<path d="M0 0 C2 1 2 1 2 1 Z " fill="#444344" transform="translate(806,543)"/>
<path d="M0 0 C2 1 2 1 2 1 Z " fill="#464545" transform="translate(692,543)"/>
<path d="M0 0 C2 1 2 1 2 1 Z " fill="#484849" transform="translate(737,542)"/>
<path d="M0 0 C2 1 2 1 2 1 Z " fill="#464546" transform="translate(866,541)"/>
<path d="M0 0 C2 1 2 1 2 1 Z " fill="#464645" transform="translate(464,541)"/>
<path d="M0 0 C2 1 2 1 2 1 Z " fill="#575659" transform="translate(353,536)"/>
<path d="M0 0 C2 1 2 1 2 1 Z " fill="#444142" transform="translate(667,535)"/>
<path d="M0 0 C2 1 2 1 2 1 Z " fill="#414242" transform="translate(592,531)"/>
<path d="M0 0 C2 1 2 1 2 1 Z " fill="#3C3C3D" transform="translate(462,507)"/>
<path d="" fill="#3F3E40" transform="translate(0,0)"/>
<path d="" fill="#4B4B4D" transform="translate(0,0)"/>
<path d="M0 0 C2 1 2 1 2 1 Z " fill="#3B3B3C" transform="translate(818,497)"/>
<path d="" fill="#4C4B4D" transform="translate(0,0)"/>
<path d="" fill="#3C3D3D" transform="translate(0,0)"/>
<path d="M0 0 C2 1 2 1 2 1 Z " fill="#424243" transform="translate(749,473)"/>
<path d="" fill="#4B4D4C" transform="translate(0,0)"/>
<path d="M0 0 C2 1 2 1 2 1 Z " fill="#4C4B4B" transform="translate(884,468)"/>
<path d="M0 0 C2 1 2 1 2 1 Z " fill="#494948" transform="translate(812,468)"/>
<path d="" fill="#59585D" transform="translate(0,0)"/>
<path d="" fill="#4B4A4B" transform="translate(0,0)"/>
<path d="" fill="#7C83AD" transform="translate(0,0)"/>
<path d="" fill="#4E4C4B" transform="translate(0,0)"/>
<path d="" fill="#474645" transform="translate(0,0)"/>
<path d="" fill="#464548" transform="translate(0,0)"/>
<path d="" fill="#454543" transform="translate(0,0)"/>
<path d="" fill="#484646" transform="translate(0,0)"/>
<path d="" fill="#494749" transform="translate(0,0)"/>
<path d="" fill="#5D5C5E" transform="translate(0,0)"/>
<path d="" fill="#484A48" transform="translate(0,0)"/>
<path d="" fill="#474646" transform="translate(0,0)"/>
<path d="" fill="#4B4A48" transform="translate(0,0)"/>
<path d="" fill="#494848" transform="translate(0,0)"/>
<path d="" fill="#444743" transform="translate(0,0)"/>
<path d="" fill="#403F3F" transform="translate(0,0)"/>
<path d="" fill="#494845" transform="translate(0,0)"/>
<path d="" fill="#484546" transform="translate(0,0)"/>
<path d="" fill="#565555" transform="translate(0,0)"/>
<path d="" fill="#4B4B4C" transform="translate(0,0)"/>
<path d="" fill="#424342" transform="translate(0,0)"/>
<path d="" fill="#484747" transform="translate(0,0)"/>
<path d="" fill="#555456" transform="translate(0,0)"/>
<path d="" fill="#474846" transform="translate(0,0)"/>
<path d="" fill="#434343" transform="translate(0,0)"/>
<path d="" fill="#414341" transform="translate(0,0)"/>
<path d="" fill="#454545" transform="translate(0,0)"/>
<path d="" fill="#454443" transform="translate(0,0)"/>
<path d="" fill="#4F4E4F" transform="translate(0,0)"/>
<path d="" fill="#6672A9" transform="translate(0,0)"/>
<path d="" fill="#757DAE" transform="translate(0,0)"/>
<path d="" fill="#444444" transform="translate(0,0)"/>
<path d="" fill="#444445" transform="translate(0,0)"/>
<path d="" fill="#6C74A9" transform="translate(0,0)"/>
<path d="" fill="#444142" transform="translate(0,0)"/>
<path d="" fill="#434143" transform="translate(0,0)"/>
<path d="" fill="#3F3E3D" transform="translate(0,0)"/>
<path d="" fill="#444345" transform="translate(0,0)"/>
<path d="" fill="#3F3F40" transform="translate(0,0)"/>
<path d="" fill="#424341" transform="translate(0,0)"/>
<path d="" fill="#434244" transform="translate(0,0)"/>
<path d="" fill="#3D3E3D" transform="translate(0,0)"/>
<path d="" fill="#3F413E" transform="translate(0,0)"/>
<path d="" fill="#3D3D3E" transform="translate(0,0)"/>
<path d="" fill="#3E3E3C" transform="translate(0,0)"/>
<path d="" fill="#515153" transform="translate(0,0)"/>
<path d="" fill="#414343" transform="translate(0,0)"/>
<path d="" fill="#41413F" transform="translate(0,0)"/>
<path d="" fill="#4C4D4C" transform="translate(0,0)"/>
<path d="" fill="#3E3E3D" transform="translate(0,0)"/>
<path d="" fill="#3E3D3E" transform="translate(0,0)"/>
<path d="" fill="#3E3F3E" transform="translate(0,0)"/>
<path d="" fill="#3E3F41" transform="translate(0,0)"/>
<path d="" fill="#434443" transform="translate(0,0)"/>
<path d="" fill="#3F4041" transform="translate(0,0)"/>
<path d="" fill="#3E3F3E" transform="translate(0,0)"/>
<path d="" fill="#3E3E3F" transform="translate(0,0)"/>
<path d="" fill="#3C3D3B" transform="translate(0,0)"/>
<path d="" fill="#4C4C4D" transform="translate(0,0)"/>
<path d="" fill="#3B3E3E" transform="translate(0,0)"/>
<path d="" fill="#424042" transform="translate(0,0)"/>
<path d="" fill="#3D3D3E" transform="translate(0,0)"/>
<path d="" fill="#414140" transform="translate(0,0)"/>
<path d="" fill="#3E3B3A" transform="translate(0,0)"/>
<path d="" fill="#413F40" transform="translate(0,0)"/>
<path d="" fill="#4B494A" transform="translate(0,0)"/>
<path d="" fill="#3F3E3E" transform="translate(0,0)"/>
<path d="" fill="#414141" transform="translate(0,0)"/>
<path d="" fill="#414240" transform="translate(0,0)"/>
<path d="" fill="#3E3C3D" transform="translate(0,0)"/>
<path d="" fill="#6B75AA" transform="translate(0,0)"/>
<path d="" fill="#403D3F" transform="translate(0,0)"/>
<path d="" fill="#4C4C4D" transform="translate(0,0)"/>
<path d="" fill="#3D3E3F" transform="translate(0,0)"/>
<path d="" fill="#3C3C3D" transform="translate(0,0)"/>
<path d="" fill="#424242" transform="translate(0,0)"/>
<path d="" fill="#3F3F3F" transform="translate(0,0)"/>
<path d="" fill="#3D3B3C" transform="translate(0,0)"/>
<path d="" fill="#3D3C3E" transform="translate(0,0)"/>
<path d="" fill="#3E3E3D" transform="translate(0,0)"/>
<path d="" fill="#3F3E3E" transform="translate(0,0)"/>
<path d="" fill="#3D3F3D" transform="translate(0,0)"/>
<path d="" fill="#4B4B4C" transform="translate(0,0)"/>
<path d="" fill="#3D3C3D" transform="translate(0,0)"/>
<path d="" fill="#3C3B3B" transform="translate(0,0)"/>
<path d="" fill="#3E3C3A" transform="translate(0,0)"/>
<path d="" fill="#3A3B3A" transform="translate(0,0)"/>
<path d="" fill="#403F3D" transform="translate(0,0)"/>
<path d="" fill="#3D3F3D" transform="translate(0,0)"/>
<path d="" fill="#3E3E3D" transform="translate(0,0)"/>
<path d="" fill="#3B3C39" transform="translate(0,0)"/>
<path d="" fill="#4C4D4E" transform="translate(0,0)"/>
<path d="" fill="#4A4B4D" transform="translate(0,0)"/>
<path d="" fill="#474A4B" transform="translate(0,0)"/>
<path d="" fill="#3F3F41" transform="translate(0,0)"/>
<path d="" fill="#403F3F" transform="translate(0,0)"/>
<path d="" fill="#3F3F3F" transform="translate(0,0)"/>
<path d="" fill="#4D4C4E" transform="translate(0,0)"/>
<path d="" fill="#3E3E3D" transform="translate(0,0)"/>
<path d="" fill="#403D3F" transform="translate(0,0)"/>
<path d="" fill="#3B3C40" transform="translate(0,0)"/>
<path d="" fill="#3B3B3C" transform="translate(0,0)"/>
<path d="" fill="#3C3D3D" transform="translate(0,0)"/>
<path d="" fill="#3D3C3D" transform="translate(0,0)"/>
<path d="" fill="#3D3E3C" transform="translate(0,0)"/>
<path d="" fill="#3F3D3E" transform="translate(0,0)"/>
<path d="" fill="#3F3E3D" transform="translate(0,0)"/>
<path d="" fill="#3E3D3F" transform="translate(0,0)"/>
<path d="" fill="#3F3D3C" transform="translate(0,0)"/>
<path d="" fill="#414142" transform="translate(0,0)"/>
<path d="" fill="#6D73A9" transform="translate(0,0)"/>
<path d="" fill="#414040" transform="translate(0,0)"/>
<path d="" fill="#41403F" transform="translate(0,0)"/>
<path d="" fill="#3E3C3D" transform="translate(0,0)"/>
<path d="" fill="#414342" transform="translate(0,0)"/>
<path d="" fill="#434445" transform="translate(0,0)"/>
<path d="" fill="#6972A9" transform="translate(0,0)"/>
<path d="" fill="#414140" transform="translate(0,0)"/>
<path d="" fill="#4E4D51" transform="translate(0,0)"/>
<path d="" fill="#40393C" transform="translate(0,0)"/>
<path d="" fill="#414040" transform="translate(0,0)"/>
<path d="" fill="#434240" transform="translate(0,0)"/>
<path d="" fill="#3C3F3E" transform="translate(0,0)"/>
<path d="" fill="#414042" transform="translate(0,0)"/>
<path d="" fill="#434342" transform="translate(0,0)"/>
<path d="" fill="#414244" transform="translate(0,0)"/>
<path d="" fill="#434243" transform="translate(0,0)"/>
<path d="" fill="#464648" transform="translate(0,0)"/>
<path d="" fill="#474747" transform="translate(0,0)"/>
<path d="" fill="#494848" transform="translate(0,0)"/>
<path d="" fill="#464746" transform="translate(0,0)"/>
<path d="" fill="#414040" transform="translate(0,0)"/>
<path d="" fill="#484849" transform="translate(0,0)"/>
<path d="" fill="#414140" transform="translate(0,0)"/>
<path d="" fill="#767EAC" transform="translate(0,0)"/>
<path d="" fill="#6E76A7" transform="translate(0,0)"/>
<path d="" fill="#6E77AA" transform="translate(0,0)"/>
<path d="" fill="#5A595C" transform="translate(0,0)"/>
<path d="" fill="#7A80AB" transform="translate(0,0)"/>
<path d="" fill="#7078A9" transform="translate(0,0)"/>
<path d="" fill="#626063" transform="translate(0,0)"/>
<path d="" fill="#7078A9" transform="translate(0,0)"/>
<path d="" fill="#6E7AAB" transform="translate(0,0)"/>
</svg>
