<?xml version="1.0" encoding="UTF-8"?>
<svg version="1.1" xmlns="http://www.w3.org/2000/svg" width="500" height="500">
<path d="M0 0 C1.12320648 -0.00503792 1.12320648 -0.00503792 2.269104 -0.01017761 C4.73036382 -0.01963175 7.19155521 -0.02162788 9.65283203 -0.02270508 C11.37387113 -0.02592134 13.09490995 -0.02928569 14.81594849 -0.03279114 C18.41864658 -0.03876844 22.02132074 -0.04063246 25.62402344 -0.04003906 C30.22596432 -0.03993748 34.82775077 -0.05359162 39.42965508 -0.07081127 C42.98313087 -0.08196386 46.53656969 -0.08395727 50.09006119 -0.08342934 C51.78601743 -0.08460446 53.48197478 -0.08899984 55.17791367 -0.0967617 C57.55621728 -0.10662831 59.93419035 -0.10365758 62.3125 -0.09765625 C63.00366913 -0.10327576 63.69483826 -0.10889526 64.4069519 -0.11468506 C72.54771338 -0.06284061 80.0056721 1.80661473 86.28564453 7.14526367 C91.58091816 13.64705534 93.5870819 20.49735308 93.57617188 28.82788086 C93.5828891 29.5734726 93.58960632 30.31906433 93.5965271 31.08724976 C93.61543991 33.53894824 93.61942815 35.99037188 93.62158203 38.44213867 C93.62801566 40.15838734 93.63474444 41.87463493 93.64175415 43.59088135 C93.65371088 47.1852065 93.65743673 50.77943567 93.65625 54.3737793 C93.65604714 58.95777982 93.68332201 63.54115809 93.71779442 68.12501144 C93.74014104 71.6700111 93.74408514 75.21486299 93.74303055 78.75992584 C93.74537588 80.44866322 93.75413864 82.13740534 93.76969528 83.82607269 C93.86153331 94.82664656 93.73126928 104.56167537 85.91064453 113.08276367 C79.26858973 119.12746023 72.95531907 120.29138918 64.26342773 120.32226562 C63.05528664 120.33212242 63.05528664 120.33212242 61.82273865 120.34217834 C59.16063333 120.36186693 56.49858436 120.37356506 53.83642578 120.38354492 C52.46867539 120.38965821 52.46867539 120.38965821 51.07329369 120.395895 C46.24539798 120.41673848 41.41753054 120.43104672 36.58959961 120.44042969 C31.61762994 120.45148054 26.64610947 120.48587009 21.67429829 120.52560139 C17.8385488 120.55182125 14.00290541 120.56012636 10.1670742 120.56371117 C8.33515584 120.56856453 6.50324181 120.58014267 4.67141151 120.59874916 C-14.85295358 120.78471228 -14.85295358 120.78471228 -23.01904297 114.32104492 C-23.53724609 113.70616211 -24.05544922 113.0912793 -24.58935547 112.45776367 C-25.12302734 111.85577148 -25.65669922 111.2537793 -26.20654297 110.63354492 C-31.65968612 101.63444599 -31.15632746 92.12414584 -31.11279297 81.99291992 C-31.11481787 80.32579929 -31.11773275 78.65867952 -31.12149048 76.99156189 C-31.12589551 73.50926218 -31.11954269 70.02719446 -31.10546875 66.54492188 C-31.08839124 62.10568514 -31.09822042 57.66699325 -31.11618614 53.22777653 C-31.12708489 49.78828409 -31.12354965 46.34891841 -31.11580276 42.90942192 C-31.11381685 41.27373628 -31.11620276 39.63803872 -31.12324142 38.00236702 C-31.16061668 26.87675746 -31.06866266 16.16022087 -23.71435547 7.14526367 C-23.05435547 7.14526367 -22.39435547 7.14526367 -21.71435547 7.14526367 C-21.71435547 6.48526367 -21.71435547 5.82526367 -21.71435547 5.14526367 C-20.51166866 4.48897518 -19.30182992 3.84578862 -18.08935547 3.20776367 C-17.41646484 2.84811523 -16.74357422 2.4884668 -16.05029297 2.11791992 C-10.90340889 -0.02518064 -5.4980579 -0.00358398 0 0 Z " fill="#19233C" transform="translate(69.71435546875,182.854736328125)"/>
<path d="M0 0 C8.58 0 17.16 0 26 0 C26.78503906 1.71445313 27.57007812 3.42890625 28.37890625 5.1953125 C35.77120543 21.30164182 35.77120543 21.30164182 43.59765625 37.19921875 C45.53890694 41.07631274 47.28395487 45.0187753 49 49 C52.23071058 43.89339295 53.1164285 40.60308458 53 34.5625 C53.34391662 23.97631665 59.41787936 7.58212064 67 0 C68.4887186 -0.08669432 69.981445 -0.10703494 71.47265625 -0.09765625 C72.37177734 -0.09443359 73.27089844 -0.09121094 74.19726562 -0.08789062 C75.61555664 -0.07532227 75.61555664 -0.07532227 77.0625 -0.0625 C78.4865918 -0.05573242 78.4865918 -0.05573242 79.93945312 -0.04882812 C82.29303065 -0.0370011 84.64648477 -0.02052025 87 0 C86.40205804 3.51636618 85.47749101 6.49749857 83.99609375 9.73828125 C83.58955566 10.63200439 83.18301758 11.52572754 82.76416016 12.4465332 C82.3263623 13.39230225 81.88856445 14.33807129 81.4375 15.3125 C80.9842334 16.30016357 80.5309668 17.28782715 80.06396484 18.30541992 C77.21453921 24.47783911 74.27049142 30.59155801 71.19018555 36.65161133 C67.40469325 44.11406148 63.81706289 51.67136957 60.21142578 59.22192383 C59.24784806 61.23811066 58.2810371 63.25275638 57.31054688 65.265625 C56.49006715 66.97750519 55.68199887 68.69545221 54.89257812 70.421875 C51.7414989 77.15400527 51.7414989 77.15400527 48 79 C45.52734375 79.36328125 45.52734375 79.36328125 42.9375 79.3125 C42.08027344 79.30863281 41.22304687 79.30476563 40.33984375 79.30078125 C38 79 38 79 35 77 C33.76074219 74.79199219 33.76074219 74.79199219 32.546875 72.046875 C32.09642822 71.04285645 31.64598145 70.03883789 31.18188477 69.00439453 C30.70936279 67.93044434 30.23684082 66.85649414 29.75 65.75 C28.75572497 63.5330376 27.75964259 61.31688485 26.76171875 59.1015625 C26.04314697 57.50296387 26.04314697 57.50296387 25.31005859 55.87207031 C23.80636043 52.5754797 22.21537321 49.34912306 20.5625 46.125 C16.58853948 38.33103385 12.9839284 30.36756406 9.34985352 22.41064453 C6.66237618 16.54005762 3.90299218 10.74223921 0.88720703 5.03222656 C0 3 0 3 0 0 Z " fill="#4165A5" transform="translate(58,205)"/>
<path d="M0 0 C2.31 0 4.62 0 7 0 C7.35191406 0.92039063 7.70382813 1.84078125 8.06640625 2.7890625 C11.11775762 10.65260342 14.49637034 18.15922532 18.34765625 25.66796875 C20.33673693 29.67904635 22.00639823 33.77580223 23.6796875 37.92578125 C25.18245345 41.42482505 26.88535934 44.8026213 28.625 48.1875 C31.27417275 53.38772799 33.35995482 58.40455175 35 64 C38.18169133 63.29998323 38.18169133 63.29998323 39.48291016 60.54174805 C39.99644043 59.45933838 40.5099707 58.37692871 41.0390625 57.26171875 C41.32145279 56.67327179 41.60384308 56.08482483 41.89479065 55.47854614 C42.81530359 53.55297033 43.72054229 51.62066278 44.625 49.6875 C45.25372772 48.36064366 45.8830438 47.03406596 46.51293945 45.70776367 C48.07187464 42.41610862 49.61645723 39.11798362 51.1539917 35.81628418 C51.92878891 34.15288216 52.70667062 32.49091779 53.48486328 30.82910156 C54.72996627 28.16174122 55.9628185 25.48928883 57.1875 22.8125 C57.53699707 22.05606201 57.88649414 21.29962402 58.24658203 20.52026367 C60.66430395 15.14308214 62.42107874 9.67717785 64 4 C65.99954746 3.95745644 68.00041636 3.95919217 70 4 C71 5 71 5 71.25 7.9375 C71.1675 8.948125 71.085 9.95875 71 11 C70.01 11.66 69.02 12.32 68 13 C66.77212126 14.97933694 66.77212126 14.97933694 65.72265625 17.34765625 C65.29742676 18.2512085 64.87219727 19.15476074 64.43408203 20.08569336 C63.75514893 21.55921265 63.75514893 21.55921265 63.0625 23.0625 C62.08228964 25.14855893 61.10181107 27.23449186 60.12109375 29.3203125 C59.61175293 30.41118164 59.10241211 31.50205078 58.57763672 32.62597656 C55.95177822 38.2417866 53.29227607 43.84127016 50.625 49.4375 C50.13781494 50.47205322 49.65062988 51.50660645 49.14868164 52.57250977 C47.03260536 57.01572504 44.87135696 61.42329261 42.41796875 65.69140625 C42.05469482 66.32377197 41.6914209 66.9561377 41.31713867 67.60766602 C40 69 40 69 37.9230957 69.48803711 C35.6875 69.5 35.6875 69.5 32 69 C26.83699103 58.74503265 21.9281754 48.36933176 17 38 C16.66907349 37.30420837 16.33814697 36.60841675 15.99719238 35.89154053 C13.81499969 31.30252137 11.63771268 26.71121621 9.46569824 22.11737061 C8.74044697 20.58476491 8.01397177 19.05273777 7.28625488 17.52130127 C6.25763387 15.35568731 5.23373048 13.18790256 4.2109375 11.01953125 C3.90100861 10.36941574 3.59107971 9.71930023 3.27175903 9.04948425 C1.8734649 6.07295444 0.62126575 3.24061539 0 0 Z " fill="#162647" transform="translate(65,210)"/>
<path d="M0 0 C0.66 0 1.32 0 2 0 C2 0.66 2 1.32 2 2 C3.65 2 5.3 2 7 2 C7.42410156 2.99257812 7.84820312 3.98515625 8.28515625 5.0078125 C11.70076557 12.94084061 15.30365557 20.69655313 19.23046875 28.390625 C21.59394545 33.11493321 23.65059691 37.97692463 25.69140625 42.84765625 C26.89054525 45.67015796 27.80948847 47.80948847 30 50 C34.30048994 47.13300671 35.5738575 43.90645354 37 39 C37.60679029 33.99646693 37.86718806 29.04021326 38 24 C38.33 24 38.66 24 39 24 C39.16831775 26.41656194 39.33471262 28.83323049 39.5 31.25 C39.54769531 31.93191406 39.59539062 32.61382812 39.64453125 33.31640625 C40.13712707 40.56460194 40.19004266 46.17802189 36.71484375 52.64453125 C36.26689453 53.48564453 35.81894531 54.32675781 35.35742188 55.19335938 C34.88884766 56.05767578 34.42027344 56.92199219 33.9375 57.8125 C33.46505859 58.69615234 32.99261719 59.57980469 32.50585938 60.49023438 C31.34296716 62.66331578 30.17421625 64.83302284 29 67 C28.01 67 27.02 67 26 67 C19.34251925 53.04618934 12.7989811 39.04145296 6.36865234 24.98144531 C5.13880549 22.30237114 3.89378064 19.6309977 2.64453125 16.9609375 C1.99130349 15.5368635 1.33888194 14.11241924 0.6875 12.6875 C0.13449219 11.49511719 -0.41851562 10.30273438 -0.98828125 9.07421875 C-2.06430241 5.80461004 -2.0981614 4.22401394 -1 1 C-0.67 0.67 -0.34 0.34 0 0 Z " fill="#4164A5" transform="translate(74,207)"/>
<path d="M0 0 C2.31 0 4.62 0 7 0 C7 14.52 7 29.04 7 44 C5.02 44 3.04 44 1 44 C0.67 43.34 0.34 42.68 0 42 C-0.99 42.66 -1.98 43.32 -3 44 C-5.55859375 44.265625 -5.55859375 44.265625 -8.4375 44.25 C-9.38496094 44.25515625 -10.33242187 44.2603125 -11.30859375 44.265625 C-14.08749622 43.99136467 -15.67121114 43.51015347 -18 42 C-22.63392704 36.04209381 -23.82124019 30.48697304 -23 23 C-22.1830693 20.21198651 -21.1482122 17.67916181 -20 15 C-19.34 15 -18.68 15 -18 15 C-18 14.34 -18 13.68 -18 13 C-12.3832389 10.0746036 -9.2142409 9.65358114 -3 11 C-2.01 11.66 -1.02 12.32 0 13 C0 8.71 0 4.42 0 0 Z M-11.1875 17.5 C-14.44809556 20.39830717 -15.35134525 21.70266229 -16 26 C-15.67934855 30.56732801 -15.09054474 33.93974817 -11.75 37.1875 C-8.07855418 38.27224536 -6.39565969 37.69782984 -3 36 C-0.75473169 34.12894308 -0.10768206 32.79864195 0.28125 29.9140625 C0.4695279 25.19142513 0.24139955 21.68848914 -3 18 C-6.44169131 15.6745329 -7.38525617 15.71070879 -11.1875 17.5 Z " fill="#DCDDDF" transform="translate(251,216)"/>
<path d="M0 0 C2.97 0 5.94 0 9 0 C9.18175781 0.70125 9.36351562 1.4025 9.55078125 2.125 C10.87959205 7.14040896 12.27942503 12.04321283 14.171875 16.875 C15.22126436 19.56777271 16.20320765 22.28279858 17.1875 25 C17.53167969 25.94875 17.87585938 26.8975 18.23046875 27.875 C18.61138672 28.926875 18.61138672 28.926875 19 30 C21.00466091 26.99300864 21.97777906 24.46507238 23.12890625 21.0546875 C23.52400391 19.89582031 23.91910156 18.73695313 24.32617188 17.54296875 C24.73416016 16.33253906 25.14214844 15.12210938 25.5625 13.875 C26.37369845 11.47568065 27.18736431 9.07719361 28.00390625 6.6796875 C28.36299072 5.61476074 28.7220752 4.54983398 29.09204102 3.45263672 C30 1 30 1 31 0 C33.67058851 -0.14115161 36.32432238 -0.04247107 39 0 C36.94451275 6.23367113 34.80828478 12.43506793 32.625 18.625 C29.6615089 27.05511751 26.79100721 35.51122231 24 44 C17.9453125 44.1953125 17.9453125 44.1953125 16 44 C13.26732374 41.26732374 12.6793455 38.11689928 11.625 34.5 C9.99080328 29.07951367 8.22472951 23.81635858 6.046875 18.5859375 C4.69787993 15.25371832 3.46646057 11.8822071 2.25 8.5 C1.82203125 7.3140625 1.3940625 6.128125 0.953125 4.90625 C0 2 0 2 0 0 Z " fill="#CDCED1" transform="translate(174,216)"/>
<path d="M0 0 C0 0.66 0 1.32 0 2 C0.598125 2.226875 1.19625 2.45375 1.8125 2.6875 C4.74984726 4.44990836 5.59761796 5.86133542 7 9 C7.57539617 11.9890049 7.9748223 14.95349792 8 18 C7 19 7 19 4.86694336 19.11352539 C3.95050049 19.10828857 3.03405762 19.10305176 2.08984375 19.09765625 C1.10048828 19.09443359 0.11113281 19.09121094 -0.90820312 19.08789062 C-1.94912109 19.07951172 -2.99003906 19.07113281 -4.0625 19.0625 C-5.10728516 19.05798828 -6.15207031 19.05347656 -7.22851562 19.04882812 C-9.8190666 19.03699913 -12.40950559 19.02051689 -15 19 C-12.29714428 23.78792941 -12.29714428 23.78792941 -7.5 26.0625 C-3.53090586 25.99162332 -2.98410635 25.33133308 0 23 C3.75 22.8125 3.75 22.8125 7 23 C5.75169723 27.99321107 4.33393787 30.21047646 0 33 C-3.19140625 33.4609375 -3.19140625 33.4609375 -6.5625 33.375 C-7.67753906 33.36210937 -8.79257812 33.34921875 -9.94140625 33.3359375 C-12.82631635 33.01907637 -14.55102599 32.49692788 -17 31 C-17 30.34 -17 29.68 -17 29 C-17.66 29 -18.32 29 -19 29 C-22.42347481 22.58098474 -23.45264503 15.83380156 -21.3203125 8.73828125 C-20.5 6.8125 -20.5 6.8125 -19 4 C-18.34 4 -17.68 4 -17 4 C-17 3.34 -17 2.68 -17 2 C-11.35612606 -1.76258262 -6.43392672 -0.91112252 0 0 Z M-11.6875 7.375 C-14.22034351 9.66706542 -14.22034351 9.66706542 -14 12 C-11.51245214 13.24377393 -9.77344699 13.13306235 -7 13.125 C-5.6696875 13.12886719 -5.6696875 13.12886719 -4.3125 13.1328125 C-1.97323034 13.15127902 -1.97323034 13.15127902 0 12 C-1.15202855 8.26790959 -1.15202855 8.26790959 -3.9375 5.6875 C-7.70882579 4.4303914 -8.6618225 4.70114547 -11.6875 7.375 Z " fill="#CBCCCF" transform="translate(433,227)"/>
<path d="M0 0 C5.01929203 5.62769106 4.33753544 12.51620068 4.25 19.625 C4.24935547 20.63884766 4.24871094 21.65269531 4.24804688 22.69726562 C4.20298812 30.17201188 4.20298812 30.17201188 3.0625 31.3125 C1.06291636 31.35330783 -0.93795254 31.35504356 -2.9375 31.3125 C-2.9375 30.6525 -2.9375 29.9925 -2.9375 29.3125 C-3.48535156 29.63476562 -4.03320312 29.95703125 -4.59765625 30.2890625 C-8.85944989 32.15315254 -13.38170871 31.87944292 -17.9375 31.3125 C-20.93947464 29.51131522 -22.38916366 28.40917268 -23.9375 25.3125 C-24.07107453 21.63920036 -24.1046568 18.81397041 -22.9375 15.3125 C-22.2775 15.3125 -21.6175 15.3125 -20.9375 15.3125 C-20.9375 14.6525 -20.9375 13.9925 -20.9375 13.3125 C-17.00892246 11.46118517 -13.94974888 11.09245057 -9.625 11.1875 C-8.55636719 11.20554688 -7.48773438 11.22359375 -6.38671875 11.2421875 C-5.57847656 11.26539063 -4.77023437 11.28859375 -3.9375 11.3125 C-4.5975 9.3325 -5.2575 7.3525 -5.9375 5.3125 C-8.23044488 4.45275199 -8.23044488 4.45275199 -10.9375 4.3125 C-11.865625 5.2715625 -11.865625 5.2715625 -12.8125 6.25 C-14.9375 8.3125 -14.9375 8.3125 -18.6875 8.5625 C-19.76 8.48 -20.8325 8.3975 -21.9375 8.3125 C-21.6875 5.4375 -21.6875 5.4375 -20.9375 2.3125 C-18.875 0.9375 -18.875 0.9375 -16.9375 0.3125 C-16.9375 -0.3475 -16.9375 -1.0075 -16.9375 -1.6875 C-11.13635653 -3.37170294 -5.2339912 -3.0067609 0 0 Z M-14.9375 17.3125 C-15.5975 18.6325 -16.2575 19.9525 -16.9375 21.3125 C-15.39922153 23.520309 -15.39922153 23.520309 -12.9375 25.3125 C-9.24317489 25.16637105 -9.24317489 25.16637105 -5.9375 24.3125 C-5.9375 23.6525 -5.9375 22.9925 -5.9375 22.3125 C-5.2775 22.3125 -4.6175 22.3125 -3.9375 22.3125 C-3.9375 20.6625 -3.9375 19.0125 -3.9375 17.3125 C-7.5675 17.3125 -11.1975 17.3125 -14.9375 17.3125 Z " fill="#D5D6D8" transform="translate(318.9375,228.6875)"/>
<path d="M0 0 C3.04758337 2.52803694 5.2345292 5.4690584 7 9 C7 12.3 7 15.6 7 19 C-0.26 19 -7.52 19 -15 19 C-12.83333333 24.83333333 -12.83333333 24.83333333 -10 26 C-7.04195427 26.33340471 -7.04195427 26.33340471 -4 26 C-3.54625 25.505 -3.0925 25.01 -2.625 24.5 C-0.5465304 22.58141268 0.41201878 22.79791779 3.1875 22.8125 C5.0746875 22.9053125 5.0746875 22.9053125 7 23 C6.16569015 26.67096333 5.30842311 28.69157689 2.625 31.375 C-2.61326785 33.72318904 -7.34766841 33.76760059 -13 33 C-17.60870579 30.81692883 -19.76047824 28.51710904 -22 24 C-23.07990602 16.46765555 -22.93162761 9.73137748 -18.38671875 3.453125 C-13.53297459 -1.63305198 -6.44695382 -2.07344912 0 0 Z M-11.6875 7.3125 C-14.32612096 9.78809483 -14.32612096 9.78809483 -14 13 C-9.38 13 -4.76 13 0 13 C-1.15047466 8.39810136 -2.16301393 7.55799072 -6 5 C-9.21190517 4.67387904 -9.21190517 4.67387904 -11.6875 7.3125 Z " fill="#D3D4D8" transform="translate(400,227)"/>
<path d="M0 0 C2.64 0 5.28 0 8 0 C9.00990692 2.91333079 10.00615952 5.83115319 11 8.75 C11.28617187 9.575 11.57234375 10.4 11.8671875 11.25 C12.13789063 12.04921875 12.40859375 12.8484375 12.6875 13.671875 C13.06455078 14.77160645 13.06455078 14.77160645 13.44921875 15.89355469 C14 18 14 18 14 22 C14.66 22 15.32 22 16 22 C16.2475 20.7625 16.495 19.525 16.75 18.25 C20.16104294 2.83895706 20.16104294 2.83895706 23 0 C25.33297433 -0.04092937 27.66705225 -0.04241723 30 0 C29.47294389 6.46760373 27.22664219 11.81856385 24.6875 17.75 C23.89752963 19.61885906 23.10976591 21.48865241 22.32421875 23.359375 C21.93540527 24.28298828 21.5465918 25.20660156 21.14599609 26.15820312 C19.62686604 29.9252832 18.2999161 33.74996143 17.00317383 37.59863281 C15.95421217 40.10960552 14.79920476 41.96272511 13 44 C10.23857697 44.52799676 7.83634455 44.18598981 5 44 C4.6875 41.1875 4.6875 41.1875 5 38 C6.66666667 37 8.33333333 36 10 35 C10.63471454 29.95250817 9.10048281 25.8596553 7.25 21.25 C6.84273682 20.19872925 6.84273682 20.19872925 6.42724609 19.1262207 C4.57415612 14.36308909 2.65680306 9.62440073 0.6640625 4.91796875 C0 3 0 3 0 0 Z " fill="#D9D9DC" transform="translate(263,227)"/>
<path d="M0 0 C1.99496782 2.74308075 2.71346097 4.4070446 3 7.75 C-0.25 8 -0.25 8 -4 7.75 C-5.35308313 6.43671343 -6.68870078 5.10500919 -8 3.75 C-10.70705512 3.89025199 -10.70705512 3.89025199 -13 4.75 C-13 6.07 -13 7.39 -13 8.75 C-12.41992188 8.93175781 -11.83984375 9.11351562 -11.2421875 9.30078125 C-1.28986961 12.50325978 -1.28986961 12.50325978 2 14.75 C3.59142274 18.33070116 4.2446621 20.58105885 3.4375 24.4375 C1.62970542 27.34569127 -0.15419613 28.8369874 -3 30.75 C-7.98021745 31.65379416 -13.42094532 31.85396694 -18.14453125 29.83203125 C-20.99206552 27.69118432 -21.97327424 25.85117611 -22.875 22.4375 C-22.91625 21.550625 -22.9575 20.66375 -23 19.75 C-19.75 19.5 -19.75 19.5 -16 19.75 C-15.34 20.430625 -14.68 21.11125 -14 21.8125 C-13.34 22.451875 -12.68 23.09125 -12 23.75 C-8.30567489 23.60387105 -8.30567489 23.60387105 -5 22.75 C-5 21.76 -5 20.77 -5 19.75 C-6.7634375 19.1003125 -6.7634375 19.1003125 -8.5625 18.4375 C-10.04262407 17.87752411 -11.52177701 17.31497528 -13 16.75 C-13.66644531 16.49863281 -14.33289063 16.24726563 -15.01953125 15.98828125 C-18.49157682 14.60677259 -19.86986979 13.94519532 -22 10.75 C-22.78431373 3.80322129 -22.78431373 3.80322129 -19.8125 -0.1875 C-13.85128244 -4.55905955 -5.91098508 -4.43323881 0 0 Z " fill="#D4D5D8" transform="translate(350,229.25)"/>
<path d="M0 0 C5.28 0 10.56 0 16 0 C16 1.98 16 3.96 16 6 C13.69 6.33 11.38 6.66 9 7 C8.11126403 10.09950623 7.81456218 12.98504367 7.68359375 16.203125 C7.64169922 17.1828125 7.59980469 18.1625 7.55664062 19.171875 C7.49766602 20.69554687 7.49766602 20.69554687 7.4375 22.25 C7.39431641 23.28125 7.35113281 24.3125 7.30664062 25.375 C7.20074318 27.9165387 7.09866557 30.45817196 7 33 C4.69 33 2.38 33 0 33 C0 22.11 0 11.22 0 0 Z " fill="#F5F6F7" transform="translate(359,227)"/>
<path d="M0 0 C2.31 0 4.62 0 7 0 C7 14.52 7 29.04 7 44 C5.02 44 3.04 44 1 44 C0.505 41.525 0.505 41.525 0 39 C0.66 39 1.32 39 2 39 C2 40.32 2 41.64 2 43 C3.32 43 4.64 43 6 43 C5.67 36.07 5.34 29.14 5 22 C4.01 22.33 3.02 22.66 2 23 C1.95101562 23.71027344 1.90203125 24.42054688 1.8515625 25.15234375 C1.77679688 26.07144531 1.70203125 26.99054688 1.625 27.9375 C1.55539063 28.85402344 1.48578125 29.77054688 1.4140625 30.71484375 C1.27742188 31.46894531 1.14078125 32.22304687 1 33 C0.01 33.495 0.01 33.495 -1 34 C-0.97679687 33.25234375 -0.95359375 32.5046875 -0.9296875 31.734375 C-0.91164062 30.74953125 -0.89359375 29.7646875 -0.875 28.75 C-0.85179687 27.77546875 -0.82859375 26.8009375 -0.8046875 25.796875 C-1.00424448 22.93921911 -1.4430667 21.37834983 -3 19 C-5.20825949 17.39980539 -5.20825949 17.39980539 -8 17 C-11.28441679 18.26638076 -11.28441679 18.26638076 -14 20 C-14.33 19.01 -14.66 18.02 -15 17 C-12.92446352 16.4465236 -11.15634036 16 -9 16 C-9.33 15.01 -9.66 14.02 -10 13 C-11.98 13 -13.96 13 -16 13 C-15.67 12.34 -15.34 11.68 -15 11 C-8.82116875 9.61508955 -5.58297116 10.09220252 0 13 C0 8.71 0 4.42 0 0 Z " fill="#A5A7AC" transform="translate(251,216)"/>
<path d="M0 0 C1.06863281 0.01804688 2.13726562 0.03609375 3.23828125 0.0546875 C4.04652344 0.07789063 4.85476563 0.10109375 5.6875 0.125 C6.89258082 3.74024247 6.64558288 5.5321892 5.6875 9.125 C5.6875 8.135 5.6875 7.145 5.6875 6.125 C2.0575 6.455 -1.5725 6.785 -5.3125 7.125 C-5.6425 8.115 -5.9725 9.105 -6.3125 10.125 C-5.25619738 11.77070159 -5.25619738 11.77070159 -3.3125 13.125 C0.31285976 13.3753577 0.31285976 13.3753577 3.6875 13.125 C3.6875 12.465 3.6875 11.805 3.6875 11.125 C5.6875 12.125 5.6875 12.125 7.6875 14.125 C7.5625 16.125 7.5625 16.125 6.6875 18.125 C2.09953198 21.07216853 -3.05793485 20.77890144 -8.3125 20.125 C-11.31447464 18.32381522 -12.76416366 17.22167268 -14.3125 14.125 C-14.44607453 10.45170036 -14.4796568 7.62647041 -13.3125 4.125 C-12.6525 4.125 -11.9925 4.125 -11.3125 4.125 C-11.3125 3.465 -11.3125 2.805 -11.3125 2.125 C-7.38392246 0.27368517 -4.32474888 -0.09504943 0 0 Z " fill="#C3C3C7" transform="translate(309.3125,239.875)"/>
<path d="M0 0 C1.65 0 3.3 0 5 0 C11.92227782 14.27818954 18.73230127 28.58807327 25.13720703 43.10668945 C25.99404581 45.04995491 25.99404581 45.04995491 27.12451172 47.04370117 C28.41906885 49.93641905 27.79837829 52.00608141 27 55 C26.01 55.495 26.01 55.495 25 56 C24.70343506 55.31599121 24.40687012 54.63198242 24.10131836 53.92724609 C16.72607721 36.91000731 16.72607721 36.91000731 8.63671875 20.2265625 C6.71148002 16.43122314 4.87384543 12.6007116 3.0625 8.75 C2.75538086 8.10466309 2.44826172 7.45932617 2.13183594 6.79443359 C0 2.23692735 0 2.23692735 0 0 Z " fill="#162547" transform="translate(76,210)"/>
<path d="M0 0 C2.64 0 5.28 0 8 0 C8 10.89 8 21.78 8 33 C5.36 33 2.72 33 0 33 C0 22.11 0 11.22 0 0 Z " fill="#C3C4C8" transform="translate(216,227)"/>
<path d="M0 0 C2.05078125 0.03255208 4.1015625 0.06510417 6.15234375 0.09765625 C3.99425111 6.64397064 1.75015913 13.1572651 -0.53515625 19.66015625 C-0.85548828 20.57345703 -1.17582031 21.48675781 -1.50585938 22.42773438 C-2.28583947 24.65125971 -3.06644787 26.87456223 -3.84765625 29.09765625 C-5.16765625 27.77765625 -6.48765625 26.45765625 -7.84765625 25.09765625 C-8.11578125 25.69578125 -8.38390625 26.29390625 -8.66015625 26.91015625 C-9.83851933 29.08082508 -11.07826606 30.40582837 -12.84765625 32.09765625 C-11.07555662 24.7392235 -8.71551888 17.6117986 -6.22265625 10.47265625 C-5.9093335 9.5712793 -5.59601074 8.66990234 -5.27319336 7.74121094 C-4.97550049 6.89719727 -4.67780762 6.05318359 -4.37109375 5.18359375 C-3.96769775 4.03963135 -3.96769775 4.03963135 -3.55615234 2.87255859 C-2.461431 0.13009678 -2.461431 0.13009678 0 0 Z " fill="#CACBCF" transform="translate(206.84765625,215.90234375)"/>
<path d="M0 0 C0.33 0 0.66 0 1 0 C1 4.29 1 8.58 1 13 C2.98 13 4.96 13 7 13 C7.33 12.34 7.66 11.68 8 11 C8.28875 11.639375 8.5775 12.27875 8.875 12.9375 C9.82823451 15.15206079 9.82823451 15.15206079 12 16 C14.95804573 16.33340471 14.95804573 16.33340471 18 16 C18.680625 15.2575 18.680625 15.2575 19.375 14.5 C21.4534696 12.58141268 22.41201878 12.79791779 25.1875 12.8125 C26.445625 12.874375 27.70375 12.93625 29 13 C28.16569015 16.67096333 27.30842311 18.69157689 24.625 21.375 C19.38673215 23.72318904 14.65233159 23.76760059 9 23 C4.40752123 20.82461532 2.19071506 18.53251391 0 14 C-0.29296875 10.44921875 -0.29296875 10.44921875 -0.1875 6.6875 C-0.14689453 4.80611328 -0.14689453 4.80611328 -0.10546875 2.88671875 C-0.07066406 1.93410156 -0.03585937 0.98148438 0 0 Z " fill="#BFC0C6" transform="translate(378,237)"/>
<path d="M0 0 C1.99496782 2.74308075 2.71346097 4.4070446 3 7.75 C-0.25 8 -0.25 8 -4 7.75 C-5.35308313 6.43671343 -6.68870078 5.10500919 -8 3.75 C-10.70705512 3.89025199 -10.70705512 3.89025199 -13 4.75 C-13 6.07 -13 7.39 -13 8.75 C-11.02 9.41 -9.04 10.07 -7 10.75 C-7 11.08 -7 11.41 -7 11.75 C-8.98 12.08 -10.96 12.41 -13 12.75 C-13.33 11.76 -13.66 10.77 -14 9.75 C-14.66 9.75 -15.32 9.75 -16 9.75 C-16 7.77 -16 5.79 -16 3.75 C-17.65 4.08 -19.3 4.41 -21 4.75 C-21 6.73 -21 8.71 -21 10.75 C-21.33 10.75 -21.66 10.75 -22 10.75 C-22.60869565 3.5673913 -22.60869565 3.5673913 -19.8125 -0.1875 C-13.85128244 -4.55905955 -5.91098508 -4.43323881 0 0 Z " fill="#B2B3B9" transform="translate(350,229.25)"/>
<path d="M0 0 C1.134375 0.020625 2.26875 0.04125 3.4375 0.0625 C2.89121735 6.38377063 0.80450755 11.67169951 -1.625 17.5 C-2.19057617 18.88348633 -2.19057617 18.88348633 -2.76757812 20.29492188 C-3.69219 22.5537838 -4.62394864 24.8094027 -5.5625 27.0625 C-6.8825 25.7425 -8.2025 24.4225 -9.5625 23.0625 C-10.5525 23.3925 -11.5425 23.7225 -12.5625 24.0625 C-12.5625 23.4025 -12.5625 22.7425 -12.5625 22.0625 C-11.9025 22.0625 -11.2425 22.0625 -10.5625 22.0625 C-10.315 20.825 -10.0675 19.5875 -9.8125 18.3125 C-5.78170661 0.10143345 -5.78170661 0.10143345 0 0 Z " fill="#C3C4C8" transform="translate(289.5625,226.9375)"/>
<path d="M0 0 C2.97 0 5.94 0 9 0 C9.19335938 0.72445312 9.38671875 1.44890625 9.5859375 2.1953125 C9.84632813 3.16210938 10.10671875 4.12890625 10.375 5.125 C10.64570313 6.13175781 10.91640625 7.13851562 11.1953125 8.17578125 C11.98889461 11.10958025 11.98889461 11.10958025 13.25 14.3125 C14.14990845 17.53717193 13.76819712 19.77357208 13 23 C11.68 23.33 10.36 23.66 9 24 C8.87625 23.360625 8.7525 22.72125 8.625 22.0625 C8.41875 21.381875 8.2125 20.70125 8 20 C7.34 19.67 6.68 19.34 6 19 C5.22216797 17.35766602 5.22216797 17.35766602 4.4921875 15.25390625 C4.22792969 14.49916016 3.96367187 13.74441406 3.69140625 12.96679688 C3.42199219 12.17337891 3.15257812 11.37996094 2.875 10.5625 C2.59785156 9.77294922 2.32070312 8.98339844 2.03515625 8.16992188 C0 2.29002463 0 2.29002463 0 0 Z " fill="#DCDDDE" transform="translate(174,216)"/>
<path d="M0 0 C1.70572284 4.47752245 2 6.98367082 2 12 C-5.92 12 -13.84 12 -22 12 C-21.67 10.35 -21.34 8.7 -21 7 C-15.72 7 -10.44 7 -5 7 C-4.67 5.02 -4.34 3.04 -4 1 C-2 0 -2 0 0 0 Z " fill="#E3E5E8" transform="translate(439,233)"/>
<path d="M0 0 C1.99954746 -0.04254356 4.00041636 -0.04080783 6 0 C7 1 7 1 7.25 3.9375 C7.1675 4.948125 7.085 5.95875 7 7 C6.01 7.66 5.02 8.32 4 9 C2.77036229 11.00015309 2.77036229 11.00015309 1.73828125 13.3515625 C1.34189453 14.20234375 0.94550781 15.053125 0.53710938 15.9296875 C0.13298828 16.81914062 -0.27113281 17.70859375 -0.6875 18.625 C-1.10322266 19.5221875 -1.51894531 20.419375 -1.94726562 21.34375 C-2.97246457 23.55912242 -3.98965968 25.77782158 -5 28 C-5.33 28 -5.66 28 -6 28 C-5.67 25.69 -5.34 23.38 -5 21 C-5.66 21 -6.32 21 -7 21 C-4.66666667 14 -2.33333333 7 0 0 Z " fill="#162648" transform="translate(129,214)"/>
<path d="M0 0 C2.64 0 5.28 0 8 0 C8.67610423 1.89248819 9.34050439 3.7891602 10 5.6875 C10.37125 6.74324219 10.7425 7.79898438 11.125 8.88671875 C11.9391857 11.78362056 12.17709796 14.01700623 12 17 C11.01 17.33 10.02 17.66 9 18 C8.34 18.66 7.68 19.32 7 20 C0 6.72413793 0 6.72413793 0 0 Z " fill="#CDCDD1" transform="translate(263,227)"/>
<path d="M0 0 C1 2 1 2 1 11 C-6.26 11 -13.52 11 -21 11 C-21 9.68 -21 8.36 -21 7 C-15.72 7 -10.44 7 -5 7 C-5 5.02 -5 3.04 -5 1 C-2 0 -2 0 0 0 Z " fill="#F0F2F4" transform="translate(406,234)"/>
<path d="M0 0 C5.28 0 10.56 0 16 0 C16 1.98 16 3.96 16 6 C14.88625 6.0825 13.7725 6.165 12.625 6.25 C8.94246056 6.57873787 8.94246056 6.57873787 7.5625 9.0625 C7.2840625 10.0215625 7.2840625 10.0215625 7 11 C7 10.34 7 9.68 7 9 C6.01 9 5.02 9 4 9 C4 8.34 4 7.68 4 7 C4.66 6.67 5.32 6.34 6 6 C6 4.35 6 2.7 6 1 C4.35 1 2.7 1 1 1 C1 11.23 1 21.46 1 32 C2.98 32 4.96 32 7 32 C7 32.33 7 32.66 7 33 C4.69 33 2.38 33 0 33 C0 22.11 0 11.22 0 0 Z " fill="#A5A6AC" transform="translate(359,227)"/>
<path d="M0 0 C0 1.98 0 3.96 0 6 C0.66 6 1.32 6 2 6 C2.66 6.66 3.32 7.32 4 8 C5.155 8.144375 6.31 8.28875 7.5 8.4375 C8.655 8.623125 9.81 8.80875 11 9 C11.99 10.485 11.99 10.485 13 12 C12.67 12.99 12.34 13.98 12 15 C9.91303753 14.60190889 7.8304656 14.1807572 5.75 13.75 C4.00976562 13.40195313 4.00976562 13.40195313 2.234375 13.046875 C-1.27331579 11.91153547 -2.80170532 10.93105957 -5 8 C-5.25 4.25 -5.25 4.25 -5 1 C-3 0 -3 0 0 0 Z " fill="#E4E5E7" transform="translate(334,233)"/>
<path d="M0 0 C0 7.26 0 14.52 0 22 C-1.32 22 -2.64 22 -4 22 C-4.33 20.02 -4.66 18.04 -5 16 C-5.99 16.33 -6.98 16.66 -8 17 C-7.690625 16.38125 -7.38125 15.7625 -7.0625 15.125 C-5.80793992 11.43511741 -5.6669231 8.08353206 -5.5390625 4.20703125 C-5 2 -5 2 -3.0234375 0.69921875 C-1 0 -1 0 0 0 Z " fill="#F8F9FB" transform="translate(257,237)"/>
<path d="M0 0 C-1.45812808 5.4679803 -1.45812808 5.4679803 -3.71875 7.6875 C-6.58835664 9.33850656 -8.46349589 9.30487515 -11.75 9.1875 C-12.73484375 9.16042969 -13.7196875 9.13335937 -14.734375 9.10546875 C-15.48203125 9.07066406 -16.2296875 9.03585937 -17 9 C-17.33 8.01 -17.66 7.02 -18 6 C-14.535 5.505 -14.535 5.505 -11 5 C-11 4.34 -11 3.68 -11 3 C-7.63966885 -0.4947444 -4.66111848 -0.26891068 0 0 Z " fill="#BEC0C4" transform="translate(440,250)"/>
<path d="M0 0 C1.06863281 0.01804688 2.13726562 0.03609375 3.23828125 0.0546875 C4.04652344 0.07789063 4.85476563 0.10109375 5.6875 0.125 C6.89258082 3.74024247 6.64558288 5.5321892 5.6875 9.125 C5.6875 8.135 5.6875 7.145 5.6875 6.125 C3.89509337 6.23889875 2.10355165 6.36647687 0.3125 6.5 C-0.68523437 6.56960937 -1.68296875 6.63921875 -2.7109375 6.7109375 C-5.46758879 6.88863964 -5.46758879 6.88863964 -7.3125 9.125 C-7.415625 8.485625 -7.51875 7.84625 -7.625 7.1875 C-7.851875 6.506875 -8.07875 5.82625 -8.3125 5.125 C-9.3025 4.795 -10.2925 4.465 -11.3125 4.125 C-11.3125 3.465 -11.3125 2.805 -11.3125 2.125 C-7.38392246 0.27368517 -4.32474888 -0.09504943 0 0 Z " fill="#8C8D91" transform="translate(309.3125,239.875)"/>
<path d="M0 0 C9.89523434 -0.77983458 9.89523434 -0.77983458 14.1875 2.25 C16 5 16 5 16 9 C9.63636364 9.48951049 9.63636364 9.48951049 6.5625 7.125 C5 5 5 5 5 3 C3.35 2.67 1.7 2.34 0 2 C0 1.34 0 0.68 0 0 Z " fill="#E8E9EB" transform="translate(337,228)"/>
<path d="M0 0 C7.26 0 14.52 0 22 0 C22.33 1.98 22.66 3.96 23 6 C20.36 5.34 17.72 4.68 15 4 C15 3.34 15 2.68 15 2 C14.01 2.495 14.01 2.495 13 3 C13.33 3.66 13.66 4.32 14 5 C12.41632253 4.85795259 10.83306682 4.71119847 9.25 4.5625 C8.36828125 4.48128906 7.4865625 4.40007812 6.578125 4.31640625 C4.30649548 4.03761535 2.20148177 3.61209423 0 3 C0 2.01 0 1.02 0 0 Z " fill="#466BAE" transform="translate(61,205)"/>
<path d="M0 0 C4.13491948 0.46987721 7.09897967 0.88408928 10 4 C11.00917654 7.31586579 11.15374823 9.38500707 10.3125 12.75 C8.82231282 15.3046066 7.73789749 15.99610425 5 17 C4.67 16.01 4.34 15.02 4 14 C5.32 12.68 6.64 11.36 8 10 C7.030625 9.71125 6.06125 9.4225 5.0625 9.125 C2 8 2 8 1 6 C1.66 6 2.32 6 3 6 C2.65555119 3.52733235 2.65555119 3.52733235 2 1 C1.34 0.67 0.68 0.34 0 0 Z " fill="#C9CBCD" transform="translate(343,241)"/>
<path d="M0 0 C-1.12451727 2.9719385 -2.22293791 5.33440687 -4 8 C-5.9453125 8.29296875 -5.9453125 8.29296875 -8.125 8.1875 C-10.043125 8.0946875 -10.043125 8.0946875 -12 8 C-12.3125 5.1875 -12.3125 5.1875 -12 2 C-8.11623879 -1.64838174 -4.98292996 -1.0747496 0 0 Z " fill="#CACCD0" transform="translate(280,263)"/>
<path d="M0 0 C-0.83430985 3.67096333 -1.69157689 5.69157689 -4.375 8.375 C-9.57529031 10.70616462 -14.38717338 10.32696077 -20 10 C-20 9.67 -20 9.34 -20 9 C-16.7 8.67 -13.4 8.34 -10 8 C-9.67 7.01 -9.34 6.02 -9 5 C-9.66 4.34 -10.32 3.68 -11 3 C-8.21756596 -1.17365106 -4.53441502 -0.22300402 0 0 Z " fill="#ACAEB3" transform="translate(407,250)"/>
<path d="M0 0 C2.88437779 1.29299694 4.87219421 2.65941363 7 5 C6 8 6 8 4 10 C3.67 11.32 3.34 12.64 3 14 C-2.61 14 -8.22 14 -14 14 C-13.34 12.68 -12.68 11.36 -12 10 C-12 10.99 -12 11.98 -12 13 C-7.38 13 -2.76 13 2 13 C1.01 11.35 0.02 9.7 -1 8 C-1.33 7.34 -1.66 6.68 -2 6 C-1.34 6 -0.68 6 0 6 C0 4.02 0 2.04 0 0 Z " fill="#BFC2C7" transform="translate(398,227)"/>
<path d="M0 0 C1.98 0 3.96 0 6 0 C5.66466723 3.01799494 5.13434402 4.80881813 3.375 7.3125 C0.16715428 9.5917588 -2.15720211 9.29559984 -6 9 C-5.67 7.02 -5.34 5.04 -5 3 C-3.35 2.67 -1.7 2.34 0 2 C0 1.34 0 0.68 0 0 Z " fill="#DBDDE0" transform="translate(303,228)"/>
<path d="M0 0 C1.65 0 3.3 0 5 0 C5 4.62 5 9.24 5 14 C3.68 14 2.36 14 1 14 C0.67 14.66 0.34 15.32 0 16 C0 10.72 0 5.44 0 0 Z " fill="#F3F4F8" transform="translate(252,216)"/>
<path d="M0 0 C2 1 2 1 4 3 C3.875 5 3.875 5 3 7 C-0.2515361 9.14271734 -2.91721378 9.21625681 -6.75 9.125 C-7.73484375 9.10695313 -8.7196875 9.08890625 -9.734375 9.0703125 C-10.85585938 9.03550781 -10.85585938 9.03550781 -12 9 C-11.0409375 8.5978125 -11.0409375 8.5978125 -10.0625 8.1875 C-7.66868314 7.11332248 -7.66868314 7.11332248 -7 4 C-5.68 4 -4.36 4 -3 4 C-3 3.34 -3 2.68 -3 2 C-2.01 2 -1.02 2 0 2 C0 1.34 0 0.68 0 0 Z " fill="#BDBEC0" transform="translate(313,251)"/>
<path d="M0 0 C1.0828125 0.7115625 1.0828125 0.7115625 2.1875 1.4375 C4.89475226 2.94152903 6.96194275 3.56599182 10 4 C10 4.33 10 4.66 10 5 C7.69 5.33 5.38 5.66 3 6 C3.33 6.66 3.66 7.32 4 8 C6.35599235 8.46751788 6.35599235 8.46751788 9.0625 8.625 C10.44115234 8.73714844 10.44115234 8.73714844 11.84765625 8.8515625 C12.55792969 8.90054687 13.26820313 8.94953125 14 9 C14 9.33 14 9.66 14 10 C11.91695462 10.05418326 9.83350232 10.09287551 7.75 10.125 C6.00976562 10.15980469 6.00976562 10.15980469 4.234375 10.1953125 C1.17213954 10.0103949 -0.44202751 9.60823023 -3 8 C-3 6.68 -3 5.36 -3 4 C-2.34 4 -1.68 4 -1 4 C-0.67 2.68 -0.34 1.36 0 0 Z " fill="#A4A6AB" transform="translate(419,250)"/>
<path d="M0 0 C0 1.32 0 2.64 0 4 C-1.65 4.33 -3.3 4.66 -5 5 C-5.33 7.97 -5.66 10.94 -6 14 C-6.33 14 -6.66 14 -7 14 C-7.66 11.69 -8.32 9.38 -9 7 C-9.99 7 -10.98 7 -12 7 C-11.67 5.68 -11.34 4.36 -11 3 C-10.34 3 -9.68 3 -9 3 C-9 2.34 -9 1.68 -9 1 C-5.92677456 0.08941469 -3.19902639 -0.08886184 0 0 Z " fill="#C0C1C3" transform="translate(242,228)"/>
<path d="M0 0 C4.29 0 8.58 0 13 0 C12.67 2.31 12.34 4.62 12 7 C10.35 7.33 8.7 7.66 7 8 C7 7.01 7 6.02 7 5 C7.66 5 8.32 5 9 5 C9 4.34 9 3.68 9 3 C6.69 3.66 4.38 4.32 2 5 C2 4.34 2 3.68 2 3 C1.34 3 0.68 3 0 3 C0 2.01 0 1.02 0 0 Z " fill="#4067B5" transform="translate(130,207)"/>
<path d="M0 0 C0.125 2.875 0.125 2.875 0 6 C-0.66 6.66 -1.32 7.32 -2 8 C-6.55555556 7.44444444 -6.55555556 7.44444444 -8 6 C-8.04080783 4.00041636 -8.04254356 1.99954746 -8 0 C-5.13822943 -1.43088528 -3.06624227 -0.59991697 0 0 Z " fill="#CDCED2" transform="translate(224,216)"/>
<path d="M0 0 C1.99954746 -0.04254356 4.00041636 -0.04080783 6 0 C7 1 7 1 7.0625 4.0625 C7.041875 5.031875 7.02125 6.00125 7 7 C4.6875 8.125 4.6875 8.125 2 9 C1.01 8.34 0.02 7.68 -1 7 C-0.67 4.69 -0.34 2.38 0 0 Z " fill="#101C2E" transform="translate(129,214)"/>
<path d="M0 0 C0.99 0.66 1.98 1.32 3 2 C2.25 7.75 2.25 7.75 0 10 C-0.33 9.01 -0.66 8.02 -1 7 C-1.66 6.67 -2.32 6.34 -3 6 C-3.268125 6.598125 -3.53625 7.19625 -3.8125 7.8125 C-4.99086308 9.98316883 -6.23060981 11.30817212 -8 13 C-7.63033201 11.20275237 -7.2282752 9.41214422 -6.8125 7.625 C-6.59207031 6.62726563 -6.37164062 5.62953125 -6.14453125 4.6015625 C-5 2 -5 2 -2.57421875 0.5234375 C-1.72472656 0.35070312 -0.87523437 0.17796875 0 0 Z " fill="#BEC0C3" transform="translate(202,235)"/>
<path d="M0 0 C0.28875 0.598125 0.5775 1.19625 0.875 1.8125 C2.04742026 4.19327792 2.04742026 4.19327792 4 7 C4.125 10.1875 4.125 10.1875 4 13 C6.97 13.33 9.94 13.66 13 14 C13 14.33 13 14.66 13 15 C11.25034642 15.05429959 9.50020213 15.09292823 7.75 15.125 C6.77546875 15.14820313 5.8009375 15.17140625 4.796875 15.1953125 C1.93372787 14.99537206 0.34844762 14.62667702 -2 13 C-2.33 12.01 -2.66 11.02 -3 10 C-2.01 9.67 -1.02 9.34 0 9 C-0.66 8.01 -1.32 7.02 -2 6 C-1.33333333 4 -0.66666667 2 0 0 Z " fill="#ACADB2" transform="translate(235,245)"/>
<path d="M0 0 C1.32 0 2.64 0 4 0 C4 3.63 4 7.26 4 11 C2.35 11 0.7 11 -1 11 C-0.67 9.68 -0.34 8.36 0 7 C-0.99 6.67 -1.98 6.34 -3 6 C-1.125 1.125 -1.125 1.125 0 0 Z " fill="#F9F9FA" transform="translate(317,247)"/>
<path d="M0 0 C0.33 0 0.66 0 1 0 C1.16831775 2.41656194 1.33471262 4.83323049 1.5 7.25 C1.54769531 7.93191406 1.59539062 8.61382812 1.64453125 9.31640625 C2.55119356 22.65729452 2.55119356 22.65729452 -2 28 C-2 26.35 -2 24.7 -2 23 C-2.66 23 -3.32 23 -4 23 C-2.125 17.25 -2.125 17.25 -1 15 C-0.76827173 12.45384991 -0.58105471 9.92603775 -0.4375 7.375 C-0.39431641 6.66859375 -0.35113281 5.9621875 -0.30664062 5.234375 C-0.20055249 3.48981463 -0.09977111 1.74493303 0 0 Z " fill="#3E5F9B" transform="translate(112,231)"/>
<path d="M0 0 C3.63 0 7.26 0 11 0 C10.67 1.65 10.34 3.3 10 5 C6.37 5 2.74 5 -1 5 C-0.67 3.35 -0.34 1.7 0 0 Z " fill="#E8EAEC" transform="translate(388,254)"/>
<path d="M0 0 C3.25 -0.3125 3.25 -0.3125 7 0 C9.4375 2.5 9.4375 2.5 11 5 C9.35 5.33 7.7 5.66 6 6 C6 6.99 6 7.98 6 9 C4.125 8.4375 4.125 8.4375 2 7 C0.75 3.375 0.75 3.375 0 0 Z " fill="#CACDD1" transform="translate(327,249)"/>
<path d="M0 0 C1.39890776 4.95492479 0.04382778 8.36176226 -2 13 C-4 15.6875 -4 15.6875 -6 18 C-6.53625 19.0725 -7.0725 20.145 -7.625 21.25 C-9 24 -9 24 -11 25 C-9.33913088 19.43335076 -6.88928264 14.34213647 -4.375 9.125 C-3.95476562 8.24585938 -3.53453125 7.36671875 -3.1015625 6.4609375 C-2.0708308 4.30577122 -1.03690574 2.15220078 0 0 Z " fill="#16274D" transform="translate(124,250)"/>
<path d="M0 0 C6.27 0 12.54 0 19 0 C18 5 18 5 16 7 C16.33 5.35 16.66 3.7 17 2 C12.71 2 8.42 2 4 2 C3.67 2.66 3.34 3.32 3 4 C2.34 4 1.68 4 1 4 C0.67 2.68 0.34 1.36 0 0 Z " fill="#4A6CA9" transform="translate(126,205)"/>
<path d="M0 0 C1.7734375 1.546875 1.7734375 1.546875 3 3 C0.03 2.505 0.03 2.505 -3 2 C-3 3.32 -3 4.64 -3 6 C-4.65 5.67 -6.3 5.34 -8 5 C-7.67 3.68 -7.34 2.36 -7 1 C-8.98 1 -10.96 1 -13 1 C-13 1.66 -13 2.32 -13 3 C-13.99 2.67 -14.98 2.34 -16 2 C-15.34 2 -14.68 2 -14 2 C-14 1.34 -14 0.68 -14 0 C-9.39127686 -1.3380164 -4.62824295 -1.21339703 0 0 Z " fill="#B8B8BE" transform="translate(316,227)"/>
<path d="M0 0 C2.97 0 5.94 0 9 0 C8 4 8 4 7 5 C5.66172696 6.66270287 4.32810215 8.32916181 3 10 C2.01 6.7 1.02 3.4 0 0 Z " fill="#CBCCD1" transform="translate(174,216)"/>
<path d="M0 0 C0.99 0.33 1.98 0.66 3 1 C3 2.98 3 4.96 3 7 C2.34 7 1.68 7 1 7 C0.67 7.66 0.34 8.32 0 9 C-1.32 9 -2.64 9 -4 9 C-3.46930939 5.17902761 -2.50298434 2.93828597 0 0 Z " fill="#F1F2F3" transform="translate(199,241)"/>
<path d="M0 0 C2.64 0 5.28 0 8 0 C6.52307692 4.67692308 6.52307692 4.67692308 3.875 6.3125 C2.946875 6.6528125 2.946875 6.6528125 2 7 C0 4 0 4 0 0 Z " fill="#DEDEE2" transform="translate(205,216)"/>
<path d="M0 0 C1.37478516 0.01740234 1.37478516 0.01740234 2.77734375 0.03515625 C3.69644531 0.04417969 4.61554688 0.05320313 5.5625 0.0625 C6.27277344 0.07410156 6.98304688 0.08570313 7.71484375 0.09765625 C7.71484375 1.41765625 7.71484375 2.73765625 7.71484375 4.09765625 C4.41484375 4.09765625 1.11484375 4.09765625 -2.28515625 4.09765625 C-2.61515625 3.10765625 -2.94515625 2.11765625 -3.28515625 1.09765625 C-2.28515625 0.09765625 -2.28515625 0.09765625 0 0 Z " fill="#F8F8FA" transform="translate(305.28515625,240.90234375)"/>
<path d="M0 0 C2.09749995 2.35968744 2.96905704 3.54616994 3.1875 6.75 C3.125625 7.4925 3.06375 8.235 3 9 C2.01 9 1.02 9 0 9 C-0.66 10.32 -1.32 11.64 -2 13 C-3.46845421 7.52667068 -2.44038726 4.88077452 0 0 Z " fill="#ECEEEF" transform="translate(181,217)"/>
<path d="M0 0 C1 2 1 2 0.44140625 4.1640625 C0.15136719 4.97617187 -0.13867188 5.78828125 -0.4375 6.625 C-0.72496094 7.44226563 -1.01242187 8.25953125 -1.30859375 9.1015625 C-1.65083984 10.04128906 -1.65083984 10.04128906 -2 11 C-4.475 10.01 -4.475 10.01 -7 9 C-6.67 7.35 -6.34 5.7 -6 4 C-5.38125 3.896875 -4.7625 3.79375 -4.125 3.6875 C-1.63473516 3.12474627 -1.63473516 3.12474627 0 0 Z " fill="#F7F8F8" transform="translate(281,253)"/>
<path d="M0 0 C-0.639375 0.433125 -1.27875 0.86625 -1.9375 1.3125 C-4.26746003 2.91239177 -4.26746003 2.91239177 -5 6 C-8.0625 7.6875 -8.0625 7.6875 -11 9 C-11.33 8.01 -11.66 7.02 -12 6 C-9.92446352 5.4465236 -8.15634036 5 -6 5 C-6.33 4.01 -6.66 3.02 -7 2 C-8.98 2 -10.96 2 -13 2 C-12 0 -12 0 -10.4375 -0.6875 C-6.83532854 -1.14931685 -3.58833068 -0.5382496 0 0 Z " fill="#9D9FA4" transform="translate(248,227)"/>
<path d="M0 0 C1.2065625 0.0309375 1.2065625 0.0309375 2.4375 0.0625 C3.0975 1.3825 3.7575 2.7025 4.4375 4.0625 C3.4475 5.0525 2.4575 6.0425 1.4375 7.0625 C-0.5 6.3125 -0.5 6.3125 -2.5625 5.0625 C-3.375 3 -3.375 3 -3.5625 1.0625 C-2.5625 0.0625 -2.5625 0.0625 0 0 Z " fill="#D8DBDB" transform="translate(246.5625,227.9375)"/>
<path d="M0 0 C2.64 0 5.28 0 8 0 C8 1.65 8 3.3 8 5 C5.36 4.67 2.72 4.34 0 4 C0 2.68 0 1.36 0 0 Z " fill="#D8DBDC" transform="translate(367,227)"/>
<path d="M0 0 C2.31 0.66 4.62 1.32 7 2 C7 3.32 7 4.64 7 6 C4.69 6 2.38 6 0 6 C-1.125 2.25 -1.125 2.25 0 0 Z " fill="#F6F7F8" transform="translate(239,253)"/>
<path d="M0 0 C2.0625 0.4375 2.0625 0.4375 4 1 C4 3.31 4 5.62 4 8 C1.525 7.01 1.525 7.01 -1 6 C-1.042721 4.33388095 -1.04063832 2.66617115 -1 1 C-0.67 0.67 -0.34 0.34 0 0 Z " fill="#EFF0F2" transform="translate(298,244)"/>
<path d="M0 0 C0 1.65 0 3.3 0 5 C-0.66 5 -1.32 5 -2 5 C-2 5.99 -2 6.98 -2 8 C-2.99 8 -3.98 8 -5 8 C-5 5.69 -5 3.38 -5 1 C-3 0 -3 0 0 0 Z " fill="#F6F7F8" transform="translate(334,233)"/>
<path d="M0 0 C0.66 0.33 1.32 0.66 2 1 C2 1.66 2 2.32 2 3 C2.99 3 3.98 3 5 3 C4.67 5.31 4.34 7.62 4 10 C2.68 8.68 1.36 7.36 0 6 C-0.99 6.33 -1.98 6.66 -3 7 C-3 6.34 -3 5.68 -3 5 C-2.34 5 -1.68 5 -1 5 C-0.67 3.35 -0.34 1.7 0 0 Z " fill="#B6B7BD" transform="translate(280,244)"/>
<path d="M0 0 C0 0.66 0 1.32 0 2 C0.99 2 1.98 2 3 2 C3 2.66 3 3.32 3 4 C0.03 4 -2.94 4 -6 4 C-6.33 3.01 -6.66 2.02 -7 1 C-4.53721199 -0.231394 -2.7204945 -0.07159196 0 0 Z " fill="#F8FAFA" transform="translate(429,255)"/>
<path d="M0 0 C1.32 0.33 2.64 0.66 4 1 C4.33 2.98 4.66 4.96 5 7 C0.25 6.125 0.25 6.125 -2 5 C-2 4.34 -2 3.68 -2 3 C-1.34 3 -0.68 3 0 3 C0 2.01 0 1.02 0 0 Z " fill="#D9D9DC" transform="translate(332,238)"/>
<path d="M0 0 C3.03317287 2.02211525 3.85984646 2.67455219 5 6 C4.625 8.75 4.625 8.75 4 11 C2.03698408 7.49461443 1.04097612 3.86648272 0 0 Z M7 0 C7.66 0.99 8.32 1.98 9 3 C8.67 3.66 8.34 4.32 8 5 C7.34 4.67 6.68 4.34 6 4 C6.33 2.68 6.66 1.36 7 0 Z " fill="#A6A7AA" transform="translate(181,235)"/>
<path d="M0 0 C0.99 0.495 0.99 0.495 2 1 C2 1.66 2 2.32 2 3 C2.99 3 3.98 3 5 3 C5 3.66 5 4.32 5 5 C5.66 5 6.32 5 7 5 C7 5.99 7 6.98 7 8 C5.35 8 3.7 8 2 8 C0 2.25 0 2.25 0 0 Z " fill="#17233C" transform="translate(95,270)"/>
<path d="M0 0 C0.66 0.66 1.32 1.32 2 2 C2.66 1.67 3.32 1.34 4 1 C3.67 2.65 3.34 4.3 3 6 C3.66 6 4.32 6 5 6 C4.34 7.65 3.68 9.3 3 11 C2.01 11 1.02 11 0 11 C0 10.34 0 9.68 0 9 C0.66 9 1.32 9 2 9 C2 7.35 2 5.7 2 4 C1.34 4 0.68 4 0 4 C0 2.68 0 1.36 0 0 Z " fill="#44629F" transform="translate(100,263)"/>
<path d="M0 0 C2.97 0.495 2.97 0.495 6 1 C5.67 2.32 5.34 3.64 5 5 C3.02 5 1.04 5 -1 5 C-0.67 3.35 -0.34 1.7 0 0 Z " fill="#F7F8FA" transform="translate(418,240)"/>
<path d="M0 0 C0.99 0.99 1.98 1.98 3 3 C2.01 3.33 1.02 3.66 0 4 C0.33 4.99 0.66 5.98 1 7 C0.34 7 -0.32 7 -1 7 C-1 7.99 -1 8.98 -1 10 C-1.99 9.67 -2.98 9.34 -4 9 C-3.34 9 -2.68 9 -2 9 C-2.66 7.35 -3.32 5.7 -4 4 C-2.68 3.34 -1.36 2.68 0 2 C0 1.34 0 0.68 0 0 Z " fill="#B9BABE" transform="translate(435,230)"/>
<path d="M0 0 C0.33 0 0.66 0 1 0 C1.19397476 1.97854258 1.38001321 3.9578648 1.5625 5.9375 C1.66691406 7.03964844 1.77132813 8.14179688 1.87890625 9.27734375 C1.91886719 10.17582031 1.95882813 11.07429688 2 12 C1 13 1 13 -2.0625 13.0625 C-3.031875 13.041875 -4.00125 13.02125 -5 13 C-5 12.34 -5 11.68 -5 11 C-3.35 11 -1.7 11 0 11 C0 7.37 0 3.74 0 0 Z " fill="#888990" transform="translate(321,247)"/>
<path d="M0 0 C1 2 1 2 0.3125 4.5 C-1.15567038 7.29651501 -2.09303901 7.93411431 -5 9 C-5.33 8.01 -5.66 7.02 -6 6 C-5.01 5.34 -4.02 4.68 -3 4 C-2.67 3.01 -2.34 2.02 -2 1 C-1.34 0.67 -0.68 0.34 0 0 Z " fill="#B7B8BD" transform="translate(353,249)"/>
<path d="M0 0 C0.99 0.66 1.98 1.32 3 2 C3.1875 4.625 3.1875 4.625 3 7 C1.35 6.67 -0.3 6.34 -2 6 C-2 4.35 -2 2.7 -2 1 C-1.34 0.67 -0.68 0.34 0 0 Z " fill="#F9FAFB" transform="translate(232,234)"/>
<path d="M0 0 C1.04211409 3.12634226 0.99926113 4.04848841 0.25 7.125 C0.01023438 8.18074219 0.01023438 8.18074219 -0.234375 9.2578125 C-0.48703125 9.83273438 -0.7396875 10.40765625 -1 11 C-1.99 11.33 -2.98 11.66 -4 12 C-3.45660208 7.43545749 -2.20536179 4.0271824 0 0 Z " fill="#16264A" transform="translate(139,219)"/>
<path d="M0 0 C1.32 0.33 2.64 0.66 4 1 C2.625 3 2.625 3 1 5 C0.34 5 -0.32 5 -1 5 C-1 6.98 -1 8.96 -1 11 C-1.33 11 -1.66 11 -2 11 C-2.25 3.375 -2.25 3.375 0 0 Z " fill="#A1A1A8" transform="translate(330,229)"/>
<path d="M0 0 C0.66 0.66 1.32 1.32 2 2 C1.625 5.625 1.625 5.625 1 9 C-0.32 8.67 -1.64 8.34 -3 8 C-3 6.68 -3 5.36 -3 4 C-2.34 4 -1.68 4 -1 4 C-0.67 2.68 -0.34 1.36 0 0 Z " fill="#BEBEC0" transform="translate(419,250)"/>
<path d="M0 0 C4.75 0.75 4.75 0.75 7 3 C5.35 3.33 3.7 3.66 2 4 C2 4.99 2 5.98 2 7 C0.68 6.34 -0.64 5.68 -2 5 C-1.34 4.67 -0.68 4.34 0 4 C0 2.68 0 1.36 0 0 Z " fill="#B9BBBE" transform="translate(331,251)"/>
<path d="M0 0 C1.33333333 2.66666667 2.66666667 5.33333333 4 8 C2.68 8.33 1.36 8.66 0 9 C-0.66 8.01 -1.32 7.02 -2 6 C-1.33333333 4 -0.66666667 2 0 0 Z " fill="#B9BAC0" transform="translate(235,245)"/>
<path d="M0 0 C1.32 0 2.64 0 4 0 C3.75 1.875 3.75 1.875 3 4 C0.9375 5.25 0.9375 5.25 -1 6 C-1.625 4.125 -1.625 4.125 -2 2 C-1.34 1.34 -0.68 0.68 0 0 Z " fill="#F2F3F4" transform="translate(317,247)"/>
<path d="M0 0 C0 1.32 0 2.64 0 4 C-1.32 4.33 -2.64 4.66 -4 5 C-4.33 4.01 -4.66 3.02 -5 2 C-5.66 1.67 -6.32 1.34 -7 1 C-4.53721199 -0.231394 -2.7204945 -0.07159196 0 0 Z " fill="#FAFAFC" transform="translate(242,228)"/>
<path d="M0 0 C0.66 0.99 1.32 1.98 2 3 C1.1015625 5.69921875 1.1015625 5.69921875 -0.375 8.6875 C-0.85710937 9.68136719 -1.33921875 10.67523438 -1.8359375 11.69921875 C-2.22007813 12.45847656 -2.60421875 13.21773437 -3 14 C-3.33 14 -3.66 14 -4 14 C-4.20140476 10.37471432 -3.85776765 8.13498292 -2 5 C-1.34 5 -0.68 5 0 5 C0 3.35 0 1.7 0 0 Z " fill="#14264A" transform="translate(119,211)"/>
<path d="M0 0 C0.33 0.66 0.66 1.32 1 2 C-0.32 3.32 -1.64 4.64 -3 6 C-4.98 5.34 -6.96 4.68 -9 4 C-8.443125 3.896875 -7.88625 3.79375 -7.3125 3.6875 C-4.55823422 2.86866423 -2.41272343 1.54146219 0 0 Z " fill="#929296" transform="translate(249,250)"/>
<path d="M0 0 C0.99 0.33 1.98 0.66 3 1 C3.6875 3.0625 3.6875 3.0625 4 5 C2.35 5.33 0.7 5.66 -1 6 C-1.33 5.01 -1.66 4.02 -2 3 C-1.34 2.01 -0.68 1.02 0 0 Z " fill="#F0F0F2" transform="translate(432,228)"/>
<path d="M0 0 C1.65 0.33 3.3 0.66 5 1 C4.67 2.32 4.34 3.64 4 5 C1.525 4.01 1.525 4.01 -1 3 C-0.67 2.01 -0.34 1.02 0 0 Z " fill="#FAF9FC" transform="translate(313,229)"/>
<path d="M0 0 C1.98 0.99 1.98 0.99 4 2 C4 3.98 4 5.96 4 8 C3.01 7.67 2.02 7.34 1 7 C0.67 4.69 0.34 2.38 0 0 Z " fill="#1B203D" transform="translate(70,216)"/>
<path d="M0 0 C2.46278801 2.46278801 2.99771255 4.70676982 4 8 C2.02 6.35 0.04 4.7 -2 3 C-1.34 2.67 -0.68 2.34 0 2 C0 1.34 0 0.68 0 0 Z M-2 5 C-1.01 5.33 -0.02 5.66 1 6 C0.01 7.485 0.01 7.485 -1 9 C-1.33 7.68 -1.66 6.36 -2 5 Z " fill="#40609D" transform="translate(83,205)"/>
<path d="M0 0 C0.66 0.33 1.32 0.66 2 1 C2.75 3.4375 2.75 3.4375 3 6 C2.34 6.66 1.68 7.32 1 8 C0.896875 7.360625 0.79375 6.72125 0.6875 6.0625 C0.460625 5.381875 0.23375 4.70125 0 4 C-0.99 3.67 -1.98 3.34 -3 3 C-3 2.34 -3 1.68 -3 1 C-2.01 0.67 -1.02 0.34 0 0 Z " fill="#B1B1B5" transform="translate(301,241)"/>
<path d="M0 0 C1.65 0 3.3 0 5 0 C5 1.32 5 2.64 5 4 C4.38125 3.79375 3.7625 3.5875 3.125 3.375 C2.42375 3.25125 1.7225 3.1275 1 3 C0.34 3.66 -0.32 4.32 -1 5 C-0.67 3.35 -0.34 1.7 0 0 Z " fill="#F4F5F7" transform="translate(287,228)"/>
<path d="M0 0 C1.99954746 -0.04254356 4.00041636 -0.04080783 6 0 C7 1 7 1 7.0625 4.0625 C7.041875 5.031875 7.02125 6.00125 7 7 C6.34 5.68 5.68 4.36 5 3 C3.35 3 1.7 3 0 3 C0 2.01 0 1.02 0 0 Z " fill="#061934" transform="translate(129,214)"/>
<path d="M0 0 C0.33 0.66 0.66 1.32 1 2 C1.99 2.33 2.98 2.66 4 3 C3.34 4.65 2.68 6.3 2 8 C1.34 7.01 0.68 6.02 0 5 C-0.66 4.67 -1.32 4.34 -2 4 C-1.34 2.68 -0.68 1.36 0 0 Z " fill="#1C284F" transform="translate(117,244)"/>
<path d="M0 0 C3.16115776 1.36983503 3.9927092 1.9890638 6 5 C5.625 7.1875 5.625 7.1875 5 9 C5 8.01 5 7.02 5 6 C3.68 5.67 2.36 5.34 1 5 C1.33 4.01 1.66 3.02 2 2 C1.34 2 0.68 2 0 2 C0 1.34 0 0.68 0 0 Z " fill="#AEB0B6" transform="translate(347,228)"/>
<path d="M0 0 C0.66 0 1.32 0 2 0 C2 1.65 2 3.3 2 5 C0.35 5 -1.3 5 -3 5 C-1.125 1.125 -1.125 1.125 0 0 Z " fill="#4069B4" transform="translate(108,254)"/>
<path d="M0 0 C0.99 0.33 1.98 0.66 3 1 C3 1.66 3 2.32 3 3 C2.34 3 1.68 3 1 3 C0.67 3.99 0.34 4.98 0 6 C-0.66 5.67 -1.32 5.34 -2 5 C-1.125 1.125 -1.125 1.125 0 0 Z " fill="#F7F8FA" transform="translate(187,239)"/>
<path d="M0 0 C0.33 1.32 0.66 2.64 1 4 C-0.98 4 -2.96 4 -5 4 C-5 3.01 -5 2.02 -5 1 C-3.35 0.67 -1.7 0.34 0 0 Z " fill="#426AB0" transform="translate(106,279)"/>
</svg>
